<?xml version="1.0" standalone="no"?>
<!DOCTYPE svg PUBLIC "-//W3C//DTD SVG 20010904//EN"
 "http://www.w3.org/TR/2001/REC-SVG-20010904/DTD/svg10.dtd">
<svg version="1.0" xmlns="http://www.w3.org/2000/svg"
 width="7730.000000pt" height="7730.000000pt" viewBox="0 0 7730.000000 7730.000000"
 preserveAspectRatio="xMidYMid meet">

<g transform="translate(0.000000,7730.000000) scale(0.100000,-0.100000)"
fill="#000000" stroke="none">
<path d="M11245 61384 c-149 -17 -226 -29 -323 -50 -597 -132 -1090 -494
-1332 -979 -93 -188 -140 -350 -160 -554 -11 -113 -11 -33328 0 -35291 8
-1414 2 -1307 76 -1529 214 -644 859 -1115 1644 -1200 52 -6 271 -10 485 -10
l390 0 4187 249 c2302 137 4216 250 4252 251 l66 2 -46 86 c-26 47 -95 174
-154 281 -389 709 -375 682 -374 731 1 79 62 152 138 163 17 3 1327 98 2911
211 1584 114 2881 208 2883 210 9 8 46 588 63 980 6 149 15 273 20 276 5 3 87
27 182 53 94 27 240 68 323 92 l151 44 804 1 c691 0 969 4 1588 21 l103 3 49
-180 c27 -99 48 -181 49 -182 0 -2 -11 -3 -25 -3 -43 0 -94 -27 -105 -55 -13
-34 -13 -100 1 -149 6 -21 12 -87 12 -145 2 -94 5 -112 30 -158 61 -117 143
-173 264 -181 43 -3 91 1 117 8 43 12 49 10 128 -23 238 -101 450 -135 978
-157 621 -26 934 -86 1238 -239 219 -110 376 -254 527 -482 106 -160 114 -167
138 -128 20 33 -179 315 -314 445 -178 172 -477 317 -799 388 -175 39 -321 55
-590 66 -579 24 -692 34 -890 80 -84 19 -185 51 -268 85 l-42 17 41 45 c22 24
47 60 56 80 36 88 34 210 -5 291 -11 23 -18 42 -15 42 2 0 75 -29 161 -64 366
-149 722 -270 1237 -421 683 -201 976 -303 1273 -445 359 -173 437 -249 499
-489 38 -149 22 -223 -94 -425 -41 -70 -49 -92 -41 -106 6 -9 16 -17 23 -17
18 0 130 192 156 267 36 106 36 185 0 329 -47 186 -91 251 -245 352 -270 178
-718 351 -1531 589 -586 171 -930 289 -1345 460 -68 28 -132 49 -142 47 -9 -3
-31 6 -49 19 -18 13 -54 31 -81 40 -26 8 -48 17 -48 18 0 2 -20 77 -44 167
-24 90 -46 178 -50 195 l-7 31 183 7 c101 4 219 9 263 12 44 2 238 13 430 25
193 11 375 22 405 24 30 3 152 12 270 20 641 45 1626 141 2285 224 83 10 151
17 153 16 6 -5 82 -221 82 -233 0 -7 -11 -28 -24 -45 -106 -141 -108 -334 -4
-452 58 -66 107 -89 193 -89 114 -1 222 62 295 172 145 220 48 509 -174 515
l-55 2 -29 83 c-16 45 -26 82 -23 82 21 0 1105 151 1109 155 1 1 40 166 86
366 46 200 93 391 105 424 12 32 21 63 21 68 0 5 -30 6 -67 3 -38 -3 -126 -8
-198 -11 -71 -3 -164 -8 -205 -10 -41 -2 -131 -7 -200 -10 -69 -3 -163 -7
-210 -10 -144 -8 -667 -33 -764 -37 l-59 -2 -111 235 c-303 638 -643 1188
-997 1614 -116 139 -384 406 -505 502 -305 242 -604 385 -925 444 -122 23
-421 18 -546 -9 l-103 -22 -117 29 c-162 41 -347 73 -414 73 -81 -1 -228 -29
-338 -64 -548 -174 -968 -684 -1241 -1508 -131 -393 -245 -957 -292 -1442
l-12 -127 -60 -5 c-34 -4 -981 -51 -2106 -106 -1125 -55 -4592 -226 -7704
-380 -3113 -154 -5698 -280 -5745 -280 -48 0 -109 6 -137 14 -121 32 -225 119
-262 219 -19 51 -19 324 -23 16897 l-4 16845 32 66 c56 114 174 197 309 219
43 7 530 -9 1824 -60 971 -38 1790 -72 1820 -75 30 -3 681 -30 1445 -60 10614
-420 35022 -1386 35120 -1390 232 -10 357 -15 500 -20 240 -9 386 -15 495 -20
58 -3 179 -7 270 -10 91 -3 210 -8 265 -10 55 -3 165 -7 245 -10 80 -3 195 -7
255 -10 61 -3 175 -7 255 -10 80 -3 190 -8 245 -10 55 -3 172 -7 260 -10 88
-3 192 -7 230 -10 39 -3 153 -7 255 -10 102 -3 217 -7 255 -10 39 -3 149 -7
245 -10 96 -3 218 -8 270 -10 52 -2 165 -7 250 -10 85 -3 198 -7 250 -10 52
-3 163 -7 245 -10 83 -3 202 -7 265 -10 63 -3 178 -7 255 -10 77 -3 185 -7
240 -10 55 -3 168 -7 250 -10 83 -3 202 -8 265 -10 63 -3 180 -7 260 -10 80
-3 188 -7 240 -10 52 -2 165 -7 250 -10 85 -3 207 -7 270 -10 130 -5 325 -13
510 -20 69 -3 172 -7 230 -10 58 -3 177 -7 265 -10 88 -3 198 -8 245 -10 47
-2 168 -7 270 -10 102 -3 212 -8 245 -10 33 -2 143 -7 245 -10 102 -3 221 -8
265 -10 44 -2 168 -7 275 -10 107 -3 218 -8 245 -10 28 -2 129 -7 225 -10 96
-3 216 -8 265 -10 50 -2 160 -7 245 -10 85 -3 209 -7 275 -10 66 -3 181 -7
255 -10 74 -3 178 -7 230 -10 52 -3 174 -7 270 -10 96 -3 218 -7 270 -10 52
-3 154 -7 225 -10 130 -5 264 -10 510 -20 72 -3 186 -7 255 -10 280 -11 409
-16 495 -20 50 -2 173 -7 275 -10 383 -13 461 -20 523 -49 79 -38 151 -119
176 -199 20 -61 20 -181 18 -14502 -2 -14001 -3 -14441 -20 -14487 -34 -87
-138 -182 -229 -209 -18 -5 -1396 -77 -3063 -159 -1666 -82 -3154 -157 -3305
-165 -570 -31 -1632 -85 -2380 -121 -426 -20 -779 -41 -784 -45 -8 -7 38 -190
119 -474 138 -478 319 -786 645 -1098 266 -255 549 -428 990 -608 271 -109
373 -170 433 -255 54 -77 69 -128 74 -249 4 -94 1 -124 -21 -208 -27 -104 -94
-256 -164 -369 -34 -55 -39 -68 -24 -68 67 0 7427 442 7502 450 380 44 749
234 1012 521 228 249 358 509 426 854 15 73 16 1492 19 15560 3 10750 0 15516
-7 15598 -35 400 -188 726 -474 1013 -193 192 -400 322 -642 402 -193 64 -292
76 -869 102 -685 30 -17822 774 -20285 880 -1284 55 -3318 143 -4520 195
-6242 271 -25753 1115 -25870 1120 -74 3 -812 34 -1640 69 -1153 49 -1584 64
-1845 63 -187 0 -353 -2 -370 -3z m18286 -32034 c142 -14 142 -13 42 -84 -115
-81 -259 -220 -337 -323 -353 -471 -482 -1295 -357 -2290 11 -87 13 -133 6
-133 -5 0 -228 -11 -494 -25 -267 -13 -486 -23 -487 -22 -4 3 23 222 46 386
148 1026 426 1799 779 2165 186 193 390 302 606 325 44 5 85 9 90 9 6 1 53 -3
106 -8z m1244 -71 c665 -155 1388 -976 2079 -2358 54 -106 96 -195 94 -196 -4
-4 -571 -36 -573 -32 -1 1 -19 52 -40 112 -169 489 -440 1026 -708 1403 -327
461 -694 833 -1032 1047 l-90 57 90 -6 c49 -4 130 -16 180 -27z m-490 -153
c211 -104 360 -204 503 -341 29 -27 58 -52 63 -53 19 -7 255 -271 368 -412
293 -364 519 -742 721 -1205 63 -144 171 -427 166 -432 -4 -4 -2949 -153
-2952 -149 -6 5 -47 367 -60 531 -20 245 -15 721 10 880 33 218 85 403 147
527 120 239 422 521 739 693 66 35 92 44 115 40 17 -3 98 -39 180 -79z m-1092
-4174 l-48 -48 -3 34 c-5 54 2 62 53 62 l46 0 -48 -48z"/>
<path d="M51203 42166 c-197 -45 -335 -186 -389 -396 -34 -133 -18 -332 36
-451 54 -120 3 -205 -210 -349 -122 -82 -134 -92 -144 -127 -10 -32 22 -59 91
-78 94 -26 133 -46 149 -78 21 -40 6 -73 -76 -167 -97 -111 -124 -148 -160
-220 -18 -37 -57 -89 -89 -121 -161 -161 -250 -446 -281 -899 -26 -378 3 -777
79 -1085 54 -219 372 -1213 516 -1615 348 -971 685 -1553 1140 -1970 461 -422
957 -602 1585 -575 301 12 584 49 1280 165 738 123 1142 180 1665 234 508 54
866 73 1510 82 1199 17 2200 -84 3425 -346 1150 -247 1309 -273 1660 -274 239
-1 341 10 525 56 1079 271 2042 1538 2399 3157 149 674 176 1401 76 2017 -129
797 -448 1437 -937 1886 -934 855 -2642 1106 -4482 657 -201 -49 -608 -168
-666 -194 -16 -8 -93 -37 -170 -65 -129 -47 -309 -119 -480 -192 -120 -52
-434 -213 -580 -299 -307 -179 -547 -353 -980 -710 -454 -373 -644 -508 -890
-629 -221 -109 -471 -183 -715 -211 -154 -17 -566 -6 -745 20 -501 74 -955
224 -1332 441 -356 206 -588 412 -848 755 -132 175 -385 493 -509 639 -56 66
-139 165 -185 220 -130 155 -311 354 -385 423 -152 142 -323 243 -481 284
-106 27 -315 35 -402 15z"/>
<path d="M38944 28181 c-54 -13 -135 -64 -171 -108 -51 -62 -74 -132 -74 -222
0 -68 4 -84 38 -151 33 -65 46 -81 100 -117 39 -26 83 -45 115 -52 29 -5 688
-62 1463 -125 l1411 -116 96 35 c123 44 230 71 338 85 161 22 2224 167 2259
159 40 -9 76 -34 105 -73 16 -20 21 -42 21 -85 0 -76 -35 -132 -97 -155 -32
-12 -227 -29 -738 -66 -1642 -119 -1551 -111 -1718 -161 -104 -32 -278 -122
-372 -192 -176 -133 -325 -319 -409 -511 -30 -69 -145 -469 -427 -1492 -212
-770 -394 -1428 -403 -1464 -10 -36 -421 -1527 -914 -3315 -492 -1787 -914
-3315 -936 -3395 -21 -80 -101 -368 -176 -640 -122 -442 -134 -496 -120 -506
27 -20 490 -170 655 -213 189 -49 457 -103 645 -130 316 -46 454 -55 850 -55
l380 0 2845 242 c1565 133 2859 243 2876 245 l31 3 26 -196 c28 -209 337
-2534 337 -2536 0 -9 228 -12 365 -4 226 13 388 33 535 68 l114 27 63 290
c186 858 343 1687 442 2328 16 97 30 179 32 181 2 2 119 14 259 25 1499 127
1793 153 1842 166 222 56 389 243 429 480 43 255 -98 519 -336 625 -33 15
-498 170 -1032 345 l-973 318 8 41 c4 23 7 316 7 651 0 630 -6 784 -46 1160
-14 124 -23 292 -26 485 -17 952 135 2140 441 3440 69 293 115 473 124 482 6
5 828 59 894 58 10 0 20 -13 26 -32 51 -167 383 -1168 493 -1485 259 -750 448
-1260 661 -1778 194 -473 330 -850 527 -1469 378 -1182 690 -2264 1327 -4589
297 -1087 290 -1063 312 -1072 36 -14 438 -18 562 -6 215 21 410 67 533 127
31 15 37 23 37 50 0 87 -171 1714 -276 2629 -263 2293 -483 3786 -709 4810
-98 449 -146 728 -209 1245 -56 451 -160 1479 -150 1489 4 4 150 -60 334 -146
63 -30 324 -159 580 -288 615 -307 794 -386 1037 -454 218 -60 370 -81 596
-81 751 0 1633 339 2344 900 111 88 368 332 454 431 l49 57 -184 -79 c-375
-160 -738 -285 -1036 -357 -555 -135 -929 -95 -1133 122 -101 107 -152 264
-167 521 -5 88 -14 241 -20 340 -17 289 -62 470 -164 648 -122 214 -321 378
-541 446 -113 35 -223 50 -488 66 -278 16 -375 27 -517 57 -156 33 -301 85
-457 164 -169 85 -286 166 -417 286 -49 45 -94 82 -99 80 -5 -1 -5 3 -1 9 5 9
2 10 -11 5 -15 -5 -16 -4 -5 9 12 14 7 19 -13 16 -5 -1 -6 3 -3 7 7 12 -28 44
-39 35 -4 -5 -5 -3 -1 4 3 6 -6 24 -20 40 -23 25 -28 26 -37 12 -9 -15 -12
-15 -29 0 -24 21 -23 37 4 44 l22 6 -27 29 c-15 16 -26 30 -25 33 2 2 1 3 -2
1 -10 -6 -10 -52 0 -52 6 0 8 5 5 10 -3 6 -2 10 3 10 17 0 21 -28 5 -34 -21
-9 -34 2 -32 27 2 38 -1 48 -13 41 -6 -4 -8 -3 -4 4 13 21 -16 24 -35 3 -11
-12 -25 -21 -32 -21 -7 0 -28 -11 -47 -25 -20 -15 -41 -23 -52 -19 -11 3 -20
-1 -24 -10 -3 -8 -21 -20 -40 -26 -23 -8 -34 -18 -34 -31 0 -10 5 -19 10 -19
6 0 10 -9 10 -20 0 -11 -4 -20 -10 -20 -5 0 -10 9 -10 19 0 24 -69 36 -86 15
-6 -8 -25 -19 -43 -25 -20 -7 -31 -18 -31 -30 0 -10 5 -19 10 -19 6 0 10 -9
10 -20 0 -11 -4 -20 -10 -20 -5 0 -10 9 -10 19 0 24 -69 36 -86 15 -15 -19
-59 -34 -100 -34 -19 0 -34 -4 -34 -10 0 -15 -38 -50 -66 -60 -14 -6 -41 -10
-60 -10 -19 0 -34 -4 -34 -10 0 -15 -38 -50 -66 -60 -14 -6 -41 -10 -60 -10
-22 0 -34 -5 -34 -14 0 -7 -8 -17 -17 -20 -10 -4 -34 -15 -53 -26 -19 -10 -47
-19 -62 -20 -17 0 -28 -6 -28 -14 0 -7 -8 -17 -17 -20 -10 -4 -34 -15 -53 -26
-19 -10 -47 -19 -62 -20 -18 0 -28 -5 -28 -15 0 -8 -6 -15 -14 -15 -7 0 -19
-7 -26 -15 -7 -8 -25 -15 -41 -15 -15 0 -31 -4 -34 -10 -3 -5 -15 -10 -26 -10
-10 0 -19 -7 -19 -15 0 -8 -6 -15 -14 -15 -7 0 -19 -7 -26 -15 -7 -8 -25 -15
-41 -15 -15 0 -31 -4 -34 -10 -3 -5 -13 -10 -21 -10 -9 0 -22 -7 -31 -15 -8
-9 -28 -19 -44 -22 -35 -7 -37 -16 -6 -31 l22 -11 -22 0 c-12 -1 -23 5 -26 12
-3 10 -9 10 -26 0 -11 -7 -26 -13 -32 -13 -6 0 -17 -7 -26 -15 -8 -9 -28 -19
-44 -22 -35 -7 -37 -16 -6 -31 l22 -11 -22 0 c-12 -1 -23 5 -26 12 -3 10 -9
10 -26 0 -11 -7 -26 -13 -32 -13 -6 0 -17 -7 -26 -15 -8 -9 -28 -19 -44 -22
-35 -7 -37 -16 -6 -31 l22 -11 -22 0 c-12 -1 -23 5 -26 12 -3 10 -9 10 -26 0
-11 -7 -30 -13 -41 -13 -17 0 -69 -29 -90 -50 -14 -14 -52 -30 -70 -30 -17 0
-69 -29 -90 -50 -14 -14 -53 -30 -74 -30 -13 0 -29 -6 -36 -14 -6 -8 -42 -27
-80 -41 -38 -14 -74 -33 -80 -40 -7 -8 -37 -24 -68 -35 -32 -12 -74 -33 -94
-47 -20 -14 -42 -22 -48 -18 -6 4 -20 -2 -31 -14 -11 -12 -25 -21 -32 -21 -7
0 -28 -11 -47 -25 -19 -14 -41 -23 -49 -20 -8 3 -23 -4 -33 -15 -10 -11 -24
-20 -31 -20 -7 0 -28 -11 -47 -25 -20 -15 -41 -23 -52 -19 -11 3 -20 -1 -24
-10 -3 -8 -21 -20 -40 -26 -23 -8 -34 -18 -34 -31 0 -10 5 -19 10 -19 6 0 10
-9 10 -20 0 -11 -4 -20 -10 -20 -5 0 -10 9 -10 19 0 24 -69 36 -86 15 -6 -8
-25 -19 -43 -25 -20 -7 -31 -18 -31 -30 0 -10 5 -19 10 -19 6 0 10 -9 10 -20
0 -11 -4 -20 -10 -20 -5 0 -10 9 -10 19 0 24 -69 36 -86 15 -15 -19 -59 -34
-100 -34 -19 0 -34 -4 -34 -10 0 -31 -69 -70 -124 -70 -26 0 -35 -6 -45 -27
-9 -19 -9 -29 -2 -31 6 -2 11 -8 11 -14 0 -6 -6 -6 -15 2 -8 7 -15 8 -15 3 0
-12 -40 -14 -41 -2 -3 19 -5 24 -12 37 -5 6 -13 12 -20 12 -6 0 -3 -6 6 -12
10 -8 14 -18 8 -26 -6 -11 -22 -10 -82 4 -41 9 -78 19 -83 22 -5 3 -27 7 -49
9 -22 2 -46 8 -52 13 -7 5 -14 7 -17 5 -10 -11 -406 97 -608 164 -316 106
-552 210 -845 371 -456 250 -889 560 -1314 939 -156 139 -480 468 -601 610
l-105 123 -145 -6 c-80 -4 -192 -9 -250 -12 -197 -10 -395 -20 -397 -20 -1 1
3 25 8 54 12 63 -1 142 -31 203 -42 81 -138 155 -225 173 -40 8 -5502 456
-5546 455 -19 -1 -48 -4 -65 -8z m14169 -1358 c-7 -2 -19 -2 -25 0 -7 3 -2 5
12 5 14 0 19 -2 13 -5z m107 -33 c0 -5 -4 -10 -10 -10 -5 0 -10 5 -10 10 0 6
5 10 10 10 6 0 10 -4 10 -10z m-160 -80 c0 -5 -4 -10 -10 -10 -5 0 -10 5 -10
10 0 6 5 10 10 10 6 0 10 -4 10 -10z m-160 -80 c0 -5 -4 -10 -10 -10 -5 0 -10
5 -10 10 0 6 5 10 10 10 6 0 10 -4 10 -10z m-160 -80 c0 -5 -4 -10 -10 -10 -5
0 -10 5 -10 10 0 6 5 10 10 10 6 0 10 -4 10 -10z m-160 -80 c0 -5 -4 -10 -10
-10 -5 0 -10 5 -10 10 0 6 5 10 10 10 6 0 10 -4 10 -10z m-173 -65 c8 -9 13
-18 11 -21 -7 -7 -55 13 -63 25 -10 17 34 13 52 -4z m-160 -80 c8 -9 13 -18
11 -21 -7 -7 -55 13 -63 25 -10 17 34 13 52 -4z m-147 -95 c0 -5 -4 -10 -10
-10 -5 0 -10 5 -10 10 0 6 5 10 10 10 6 0 10 -4 10 -10z m-70 -4 c0 -2 -7 -9
-15 -16 -12 -10 -15 -10 -15 4 0 9 7 16 15 16 8 0 15 -2 15 -4z m-160 -80 c0
-2 -7 -9 -15 -16 -12 -10 -15 -10 -15 4 0 9 7 16 15 16 8 0 15 -2 15 -4z
m-160 -80 c0 -2 -7 -9 -15 -16 -12 -10 -15 -10 -15 4 0 9 7 16 15 16 8 0 15
-2 15 -4z m-37 -53 c-7 -2 -19 -2 -25 0 -7 3 -2 5 12 5 14 0 19 -2 13 -5z
m-53 -7 c0 -3 -4 -8 -10 -11 -5 -3 -10 -1 -10 4 0 6 5 11 10 11 6 0 10 -2 10
-4z m-70 -20 c0 -2 -7 -9 -15 -16 -12 -10 -15 -10 -15 4 0 9 7 16 15 16 8 0
15 -2 15 -4z m-37 -53 c-7 -2 -19 -2 -25 0 -7 3 -2 5 12 5 14 0 19 -2 13 -5z
m-53 -7 c0 -3 -4 -8 -10 -11 -5 -3 -10 -1 -10 4 0 6 5 11 10 11 6 0 10 -2 10
-4z m-70 -20 c0 -2 -7 -9 -15 -16 -12 -10 -15 -10 -15 4 0 9 7 16 15 16 8 0
15 -2 15 -4z m-277 -43 c-7 -2 -19 -2 -25 0 -7 3 -2 5 12 5 14 0 19 -2 13 -5z
m192 -13 c-3 -5 -10 -10 -16 -10 -5 0 -9 5 -9 10 0 6 7 10 16 10 8 0 12 -4 9
-10z m-75 -24 c0 -2 -7 -9 -15 -16 -12 -10 -15 -10 -15 4 0 9 7 16 15 16 8 0
15 -2 15 -4z m-277 -43 c-7 -2 -19 -2 -25 0 -7 3 -2 5 12 5 14 0 19 -2 13 -5z
m192 -13 c-3 -5 -10 -10 -16 -10 -5 0 -9 5 -9 10 0 6 7 10 16 10 8 0 12 -4 9
-10z m-75 -24 c0 -2 -7 -9 -15 -16 -12 -10 -15 -10 -15 4 0 9 7 16 15 16 8 0
15 -2 15 -4z m-277 -43 c-7 -2 -19 -2 -25 0 -7 3 -2 5 12 5 14 0 19 -2 13 -5z
m122 -13 c-3 -5 -13 -10 -21 -10 -8 0 -14 5 -14 10 0 6 9 10 21 10 11 0 17 -4
14 -10z m38 -17 c-7 -2 -19 -2 -25 0 -7 3 -2 5 12 5 14 0 19 -2 13 -5z m-49
-12 c3 -5 -1 -11 -9 -15 -9 -3 -15 0 -15 9 0 16 16 20 24 6z m-271 -38 c-7 -2
-19 -2 -25 0 -7 3 -2 5 12 5 14 0 19 -2 13 -5z m122 -13 c-3 -5 -13 -10 -21
-10 -8 0 -14 5 -14 10 0 6 9 10 21 10 11 0 17 -4 14 -10z m38 -17 c-7 -2 -19
-2 -25 0 -7 3 -2 5 12 5 14 0 19 -2 13 -5z m-49 -12 c3 -5 -1 -11 -9 -15 -9
-3 -15 0 -15 9 0 16 16 20 24 6z m-271 -38 c-7 -2 -19 -2 -25 0 -7 3 -2 5 12
5 14 0 19 -2 13 -5z m114 -9 c-3 -3 -12 -4 -19 -1 -8 3 -5 6 6 6 11 1 17 -2
13 -5z m-274 -71 c-7 -2 -19 -2 -25 0 -7 3 -2 5 12 5 14 0 19 -2 13 -5z m180
-10 c-7 -2 -19 -2 -25 0 -7 3 -2 5 12 5 14 0 19 -2 13 -5z m-73 -23 c0 -5 -4
-10 -10 -10 -5 0 -10 5 -10 10 0 6 5 10 10 10 6 0 10 -4 10 -10z m-267 -47
c-7 -2 -19 -2 -25 0 -7 3 -2 5 12 5 14 0 19 -2 13 -5z m115 -35 c-6 -18 -28
-21 -28 -4 0 9 7 16 16 16 9 0 14 -5 12 -12z m-168 -78 c0 -5 -4 -10 -10 -10
-5 0 -10 5 -10 10 0 6 5 10 10 10 6 0 10 -4 10 -10z m-160 -80 c0 -5 -4 -10
-10 -10 -5 0 -10 5 -10 10 0 6 5 10 10 10 6 0 10 -4 10 -10z m-160 -80 c0 -5
-4 -10 -10 -10 -5 0 -10 5 -10 10 0 6 5 10 10 10 6 0 10 -4 10 -10z m-150 -59
c0 -3 -9 -12 -20 -19 -15 -9 -26 -10 -40 -2 -11 6 -25 8 -30 5 -6 -3 -10 -2
-10 3 0 5 -15 8 -32 6 -19 -2 -28 0 -21 4 15 9 153 12 153 3z m57 -7 c-3 -3
-12 -4 -19 -1 -8 3 -5 6 6 6 11 1 17 -2 13 -5z m-42 -14 c-3 -5 -12 -10 -18
-10 -7 0 -6 4 3 10 19 12 23 12 15 0z m-3551 -1447 c26 -820 148 -3538 196
-4343 5 -91 10 -192 10 -224 l0 -60 -56 75 c-167 222 -315 523 -394 799 -17
58 -55 224 -86 370 -124 601 -722 3535 -721 3536 1 1 56 5 122 9 66 4 280 18
475 30 195 12 376 23 401 24 l46 1 7 -217z"/>
<path d="M49585 25040 c-3 -5 -2 -10 4 -10 5 0 13 5 16 10 3 6 2 10 -4 10 -5
0 -13 -4 -16 -10z"/>
<path d="M41435 27140 c-60 -4 -175 -11 -255 -14 -80 -4 -181 -9 -225 -11 -44
-2 -134 -7 -200 -10 -121 -5 -244 -11 -410 -20 -49 -3 -148 -7 -220 -10 -71
-3 -164 -7 -205 -10 -41 -3 -124 -7 -185 -10 -193 -9 -517 -25 -605 -30 -47
-2 -139 -7 -205 -10 -66 -3 -158 -8 -205 -10 -80 -4 -142 -7 -405 -20 -203
-10 -919 -45 -1020 -50 -102 -5 -419 -21 -600 -30 -55 -3 -239 -12 -410 -20
-304 -15 -430 -21 -590 -30 -44 -2 -143 -7 -220 -11 -77 -3 -144 -9 -148 -11
-12 -7 -63 -122 -88 -197 -15 -45 -149 -605 -149 -623 0 -5 84 6 112 13 13 4
35 -43 116 -248 156 -394 182 -461 377 -978 l183 -485 1514 -257 c832 -142
1801 -307 2153 -367 352 -60 641 -108 643 -106 2 1 174 621 382 1376 208 756
389 1399 400 1429 106 270 302 532 523 700 32 23 57 46 57 51 0 5 -1 8 -2 8
-2 -1 -52 -5 -113 -9z"/>
<path d="M53206 26971 c-3 -4 1 -17 9 -27 13 -17 14 -18 15 -1 0 9 -5 17 -11
17 -5 0 -7 5 -4 10 3 6 4 10 1 10 -3 0 -7 -4 -10 -9z"/>
<path d="M53270 26840 c-13 -9 -13 -11 0 -19 16 -11 43 5 34 20 -7 11 -15 11
-34 -1z"/>
<path d="M49384 25091 c-1 -14 1 -20 3 -13 3 6 8 10 13 7 4 -3 10 1 13 9 3 8
-2 16 -11 18 -13 4 -17 -2 -18 -21z"/>
<path d="M36014 23934 c14 -37 175 -491 223 -629 45 -132 49 -140 73 -138 418
40 1184 115 1210 118 49 7 1467 145 1487 145 9 0 14 2 12 4 -4 5 -256 48
-2009 346 -520 88 -958 163 -974 166 -25 5 -28 4 -22 -12z"/>
<path d="M24660 23527 c-608 -44 -1107 -81 -1108 -83 -2 -1 69 -219 158 -483
l163 -481 66 1 c99 0 1799 104 1805 109 8 9 116 939 116 1006 0 10 -13 14 -47
13 -27 -1 -545 -38 -1153 -82z"/>
<path d="M22690 23385 c-239 -18 -706 -52 -1038 -76 -369 -26 -595 -46 -581
-51 22 -8 603 -185 714 -218 33 -9 202 -60 375 -113 1049 -320 1335 -406 1337
-403 2 2 -194 591 -277 834 -22 61 -22 62 -58 61 -21 -1 -233 -16 -472 -34z"/>
<path d="M38626 23059 c-775 -76 -1411 -140 -1413 -143 -7 -7 -117 -2136 -110
-2143 8 -7 2359 196 2368 205 7 8 609 2194 609 2211 0 6 -10 10 -22 10 -13 -1
-657 -64 -1432 -140z"/>
<path d="M20480 23075 c0 -8 410 -758 420 -769 7 -7 910 40 918 49 2 1 -39 88
-91 191 l-95 189 -274 82 c-150 46 -406 123 -569 173 -306 93 -309 94 -309 85z"/>
<path d="M36632 22865 c-123 -13 -226 -25 -228 -28 -3 -3 87 -283 200 -624
130 -393 205 -605 205 -583 1 19 15 287 31 595 32 597 34 666 23 664 -5 -1
-108 -12 -231 -24z"/>
<path d="M22135 22490 c30 -60 58 -110 62 -112 4 -2 121 3 258 12 l250 15 -65
22 c-36 12 -157 49 -270 83 -113 34 -224 67 -247 75 l-42 14 54 -109z"/>
<path d="M38245 20533 c-588 -52 -1071 -95 -1072 -97 -1 -1 15 -58 36 -127 87
-275 364 -1197 534 -1774 32 -107 50 -151 61 -153 18 -4 969 78 975 84 3 3
385 1383 575 2077 l24 87 -31 -1 c-18 -1 -513 -44 -1102 -96z"/>
<path d="M38262 18085 c-200 -19 -366 -36 -368 -38 -3 -3 70 -264 163 -581
l168 -576 30 -5 c17 -3 43 -6 59 -7 l29 -3 103 370 c56 204 133 484 171 623
l70 252 -31 -1 c-17 -1 -195 -16 -394 -34z"/>
<path d="M37224 16400 c-501 -48 -917 -89 -924 -92 -7 -2 190 -82 436 -177
247 -96 632 -245 857 -331 224 -87 409 -155 411 -151 2 3 50 173 106 376 56
204 107 391 115 418 l14 47 -52 -1 c-29 -1 -462 -41 -963 -89z"/>
<path d="M54119 12496 c-158 -42 -259 -174 -334 -435 -24 -80 -55 -184 -69
-231 -15 -47 -34 -123 -41 -170 -8 -47 -18 -103 -22 -125 -12 -57 2 -320 21
-388 52 -188 166 -302 358 -355 54 -14 110 -17 383 -17 334 0 402 6 512 47 65
24 125 89 149 160 31 95 -5 260 -119 543 -77 192 -75 183 -88 342 -12 147 -38
240 -102 352 -75 132 -221 241 -368 276 -76 18 -216 18 -280 1z"/>
<path d="M47709 11713 c-211 -105 -595 -708 -747 -1176 -36 -112 -58 -159
-115 -250 -95 -151 -119 -206 -125 -286 -6 -91 9 -109 98 -116 36 -3 112 -10
170 -16 58 -5 227 -12 375 -15 224 -5 283 -3 344 10 134 28 193 77 256 211 54
114 118 203 234 329 102 110 142 170 171 265 33 105 28 153 -35 311 -10 25
-49 90 -85 145 -81 121 -122 199 -145 280 -27 96 -79 199 -126 251 -81 87
-170 106 -270 57z"/>
<path d="M29576 11539 c-47 -11 -117 -49 -110 -60 2 -5 -9 -15 -26 -24 -16 -8
-30 -21 -30 -28 0 -7 -9 -18 -21 -25 -11 -7 -18 -19 -15 -27 2 -7 -2 -16 -10
-19 -9 -4 -12 -11 -8 -18 5 -8 0 -7 -11 2 -10 8 -16 10 -13 5 4 -6 0 -21 -9
-35 -8 -14 -12 -17 -9 -7 3 11 2 15 -4 12 -6 -3 -10 -14 -10 -24 0 -9 -14 -27
-30 -40 -17 -12 -28 -26 -25 -31 3 -5 -5 -20 -18 -34 -25 -26 -44 -35 -31 -14
4 7 3 8 -5 4 -6 -4 -9 -12 -6 -17 4 -5 1 -9 -5 -9 -6 0 -9 -3 -6 -8 2 -4 -3
-16 -11 -27 -16 -20 -16 -20 -9 0 17 47 -13 -4 -32 -56 -52 -140 -67 -368 -36
-529 27 -144 101 -317 170 -399 19 -23 31 -29 52 -26 15 2 49 7 75 10 l48 6
-26 35 c-43 56 -113 213 -135 304 -27 109 -36 289 -21 404 38 286 191 529 394
627 51 25 60 43 25 53 -28 7 -43 6 -92 -5z"/>
<path d="M30300 10892 c-195 -270 -216 -291 -319 -313 -102 -22 -220 41 -264
141 -13 29 -22 77 -26 145 l-6 100 -33 -65 c-43 -87 -58 -179 -44 -267 15 -92
62 -184 117 -229 43 -35 129 -69 146 -58 5 3 9 -33 9 -80 0 -83 1 -86 23 -86
12 1 125 14 251 29 187 23 231 31 242 46 24 32 74 186 89 272 29 164 12 407
-36 520 l-14 32 -135 -187z"/>
<path d="M22795 10806 c-22 -7 -51 -19 -65 -26 -14 -8 -27 -14 -30 -13 -3 1
-6 -7 -7 -17 -1 -11 -15 -32 -31 -48 -16 -16 -35 -39 -41 -51 -7 -12 -17 -18
-23 -15 -6 4 -8 3 -4 -4 3 -6 -9 -23 -29 -37 -19 -15 -32 -31 -30 -36 3 -4 -4
-13 -15 -19 -11 -6 -18 -15 -16 -19 6 -9 -95 -117 -107 -113 -5 1 -7 -8 -5
-20 2 -18 -1 -22 -17 -20 -11 2 -17 1 -13 -4 4 -4 3 -13 -2 -19 -25 -30 -52
-175 -57 -305 -6 -162 11 -278 60 -410 44 -117 88 -189 167 -273 113 -122 253
-192 370 -185 l54 3 -76 38 c-396 200 -532 833 -277 1283 57 102 163 209 252
254 81 43 91 70 25 69 -24 0 -61 -6 -83 -13z"/>
<path d="M23535 10168 c-163 -227 -212 -281 -272 -304 -90 -35 -186 -18 -256
45 -57 51 -78 104 -84 219 -6 93 -6 95 -24 73 -58 -72 -81 -247 -46 -361 33
-110 119 -204 199 -217 l38 -6 0 -204 c0 -152 -3 -202 -12 -197 -6 4 -8 3 -4
-4 3 -5 0 -12 -6 -15 -10 -3 -10 -8 1 -18 8 -8 11 -9 7 -2 -12 22 13 23 28 1
15 -21 18 -22 83 -11 250 43 457 285 525 613 27 128 22 344 -11 470 -12 47
-26 88 -29 92 -4 4 -65 -75 -137 -174z"/>
<path d="M34445 10344 c-86 -18 -138 -39 -146 -61 -5 -14 -14 -21 -19 -18 -6
3 -17 0 -25 -9 -18 -18 -20 -30 -2 -20 6 3 -1 -7 -18 -23 -16 -16 -33 -28 -36
-26 -4 1 -6 -5 -5 -15 0 -9 -5 -16 -11 -14 -7 1 -12 -4 -10 -10 1 -7 -3 -12
-10 -11 -7 2 -18 -7 -24 -20 -12 -21 -11 -21 7 -8 10 8 -1 -5 -26 -30 -25 -24
-47 -43 -49 -41 -3 1 -14 -17 -26 -40 -12 -24 -32 -49 -46 -55 -13 -7 -20 -13
-15 -13 6 0 1 -7 -10 -16 -10 -8 -12 -13 -4 -9 8 4 5 -2 -7 -13 -29 -26 -60
-138 -75 -274 -38 -343 116 -708 359 -851 81 -47 146 -67 233 -73 l75 -5 -82
41 c-202 100 -348 311 -399 578 -17 91 -20 294 -4 387 28 170 112 349 214 458
60 63 102 95 174 132 35 18 52 33 52 46 0 19 -17 22 -65 13z"/>
<path d="M35184 9780 c-38 -52 -105 -143 -148 -202 -117 -163 -179 -208 -282
-208 -73 0 -116 19 -169 73 -61 63 -75 104 -75 222 0 103 -10 103 -56 2 -36
-81 -45 -205 -19 -293 32 -113 106 -198 193 -225 l43 -12 -3 -208 c-2 -148 0
-205 8 -198 7 5 11 3 11 -6 0 -17 -24 -28 -39 -18 -7 4 -8 1 -4 -6 5 -7 14
-10 21 -7 8 3 15 0 17 -6 7 -20 146 10 228 49 57 28 94 56 161 122 73 74 93
102 138 191 78 159 104 270 104 455 0 148 -11 231 -46 330 l-14 39 -69 -94z"/>
<path d="M28412 9690 c-20 -17 -21 -19 -5 -23 14 -4 13 -5 -4 -6 -13 -1 -24
-10 -29 -23 -9 -31 -37 -67 -50 -68 -6 0 -19 -10 -30 -22 -12 -15 -14 -19 -4
-13 9 6 7 2 -5 -9 -11 -10 -19 -22 -18 -27 2 -4 -11 -17 -27 -29 -17 -12 -28
-25 -25 -30 3 -5 0 -12 -6 -16 -8 -5 -9 -3 -4 7 8 12 6 12 -8 0 -9 -7 -17 -18
-17 -23 0 -15 -40 -63 -53 -63 -7 0 -13 -9 -15 -19 -2 -10 -12 -27 -21 -37
-21 -23 -47 -119 -62 -234 -36 -273 56 -582 225 -762 71 -75 166 -144 203
-147 10 0 23 -6 30 -12 26 -24 222 -46 208 -23 -4 6 -9 8 -12 5 -9 -9 -136 60
-191 103 -248 196 -358 612 -262 985 50 191 167 369 303 458 l37 25 -56 12
c-73 14 -75 14 -102 -9z"/>
<path d="M29236 9075 c-81 -113 -164 -219 -184 -235 -128 -106 -312 -62 -381
90 -16 35 -21 67 -21 145 -1 93 -2 99 -16 80 -9 -11 -28 -45 -42 -75 -23 -49
-26 -67 -27 -170 0 -109 2 -119 32 -182 38 -82 97 -143 155 -160 42 -12 90
-48 66 -48 -9 0 -8 -4 2 -10 10 -6 11 -10 3 -10 -10 0 -13 -48 -13 -205 l0
-205 48 6 c26 3 72 13 102 21 344 93 563 553 479 1003 -13 68 -41 160 -48 160
-3 0 -73 -92 -155 -205z"/>
<path d="M28787 8523 c-10 -9 -9 -23 1 -23 5 0 9 7 9 15 0 17 -1 18 -10 8z"/>
</g>
</svg>
