<?xml version="1.0" standalone="no"?>
<!DOCTYPE svg PUBLIC "-//W3C//DTD SVG 20010904//EN"
 "http://www.w3.org/TR/2001/REC-SVG-20010904/DTD/svg10.dtd">
<svg version="1.0" xmlns="http://www.w3.org/2000/svg"
 width="7730.000000pt" height="7730.000000pt" viewBox="0 0 7730.000000 7730.000000"
 preserveAspectRatio="xMidYMid meet">

<g transform="translate(0.000000,7730.000000) scale(0.100000,-0.100000)"
fill="#000000" stroke="none">
<path d="M34055 66540 c-1195 -87 -2265 -611 -3243 -1590 -952 -953 -1785
-2295 -2527 -4075 -924 -2216 -1682 -5152 -2164 -8385 -57 -383 -142 -1003
-137 -1007 3 -3 870 -53 872 -50 1 1 16 106 33 232 315 2280 782 4516 1326
6351 697 2352 1523 4160 2484 5442 481 641 984 1132 1521 1487 326 216 600
353 937 469 272 93 562 157 848 187 131 14 598 18 629 6 16 -6 0 -20 -90 -71
-418 -239 -738 -489 -1094 -852 -184 -188 -322 -349 -478 -558 -906 -1214
-1486 -2952 -1731 -5186 -83 -758 -119 -1407 -128 -2320 -16 -1633 106 -3373
368 -5255 60 -433 188 -1251 225 -1431 l6 -31 -109 -6 c-271 -16 -422 -115
-467 -307 -9 -36 -16 -86 -16 -111 0 -71 28 -214 60 -312 17 -48 30 -94 30
-102 0 -8 -13 -53 -29 -102 -55 -163 -66 -240 -66 -443 0 -156 4 -201 23 -289
117 -525 505 -912 996 -996 163 -28 366 -14 526 35 l64 19 101 -58 c485 -283
1101 -499 1859 -652 421 -85 881 -153 1756 -259 946 -115 1361 -175 1835 -266
1415 -269 2441 -717 3307 -1446 176 -148 514 -487 665 -668 390 -468 710 -983
968 -1558 37 -83 75 -157 82 -164 8 -7 31 -12 50 -12 40 0 83 39 83 76 0 49
-224 515 -374 779 -292 514 -590 909 -990 1317 -476 484 -951 830 -1556 1133
-813 406 -1711 655 -3045 843 -137 20 -578 76 -979 126 -980 122 -1343 175
-1766 260 -507 102 -956 235 -1324 391 -131 56 -460 220 -479 239 -5 4 17 26
50 48 274 189 464 478 540 824 25 115 25 449 0 558 -28 123 -65 230 -116 332
l-47 96 186 -93 c102 -51 293 -152 425 -225 778 -426 1503 -759 3880 -1780
1040 -447 1460 -629 1960 -853 1877 -838 3067 -1469 3805 -2017 482 -358 794
-708 995 -1115 282 -570 269 -1170 -40 -1785 -105 -208 -216 -377 -372 -563
-80 -96 -92 -121 -77 -162 8 -20 56 -45 86 -45 50 0 271 273 411 508 172 289
272 555 329 882 26 151 31 449 9 600 -57 400 -225 770 -517 1135 -469 588
-1367 1183 -2967 1970 -915 450 -1637 773 -3937 1760 -1252 538 -1783 772
-2375 1050 -345 162 -900 442 -1140 576 -237 132 -687 356 -732 365 -17 3 -39
1 -49 -4 -15 -8 -32 3 -98 65 -134 124 -296 221 -448 269 -47 14 -58 22 -63
43 -17 84 -122 714 -174 1046 -213 1373 -357 2777 -421 4080 -48 997 -46 2071
5 2940 99 1661 376 3087 815 4184 190 475 426 930 668 1288 319 470 702 870
1112 1159 390 275 840 482 1318 605 l153 39 87 -47 c1332 -721 2695 -2142
3879 -4043 1635 -2625 2794 -5910 3332 -9445 40 -261 110 -780 132 -975 6 -58
15 -108 18 -111 6 -6 90 -12 346 -24 61 -3 135 -8 165 -10 30 -2 124 -7 208
-11 145 -6 152 -6 152 12 0 31 -58 512 -91 754 -481 3565 -1578 6929 -3159
9690 -976 1704 -2118 3134 -3271 4093 -81 67 -143 124 -138 125 15 6 256 -58
419 -110 630 -204 1269 -571 1890 -1087 432 -359 907 -839 1331 -1346 1147
-1372 2270 -3263 3354 -5650 853 -1877 1700 -4142 2378 -6355 92 -301 254
-854 262 -895 6 -27 -2 -38 -88 -125 -219 -222 -347 -503 -377 -828 -47 -516
198 -1010 626 -1263 453 -267 1020 -192 1400 186 174 172 290 377 349 614 192
768 -281 1527 -1020 1636 l-40 6 -33 117 c-257 915 -699 2298 -1042 3265
-1098 3097 -2311 5719 -3593 7772 -966 1547 -2001 2790 -3015 3623 -474 389
-982 720 -1445 942 -915 438 -1818 596 -2740 479 l-159 -20 -91 40 c-424 185
-887 314 -1322 366 -155 19 -571 27 -740 15z m-2331 -16810 c18 -6 26 -17 26
-33 0 -18 -19 -36 -86 -82 -100 -67 -218 -181 -288 -278 -33 -44 -52 -63 -57
-55 -16 26 -31 147 -28 219 6 103 35 149 123 190 82 38 255 60 310 39z"/>
<path d="M15766 30154 c-215 -42 -416 -147 -577 -301 -128 -122 -210 -254
-256 -408 -17 -57 -18 -291 -21 -4898 l-2 -4839 27 6 c16 3 80 12 143 21 63 8
130 18 147 21 l33 5 2 4857 c3 4625 4 4860 21 4917 54 182 122 302 235 413 84
83 178 145 285 189 87 35 76 40 -37 17z"/>
<path d="M17020 30152 c0 -5 7 -9 15 -9 8 0 12 4 9 9 -3 4 -9 8 -15 8 -5 0 -9
-4 -9 -8z"/>
<path d="M16708 30133 c7 -3 16 -2 19 1 4 3 -2 6 -13 5 -11 0 -14 -3 -6 -6z"/>
<path d="M18939 30063 c-13 -16 -12 -17 4 -4 9 7 17 15 17 17 0 8 -8 3 -21
-13z"/>
<path d="M18996 30064 c-3 -8 -11 -12 -17 -8 -8 4 -9 3 -5 -5 6 -8 12 -9 20
-2 7 6 16 8 20 4 4 -4 4 0 0 10 -8 21 -10 21 -18 1z"/>
<path d="M19127 30057 c-3 -8 1 -14 8 -14 7 0 11 6 8 14 -3 7 -6 13 -8 13 -2
0 -5 -6 -8 -13z"/>
<path d="M19185 30059 c-3 -4 2 -6 10 -5 21 3 28 13 10 13 -9 0 -18 -4 -20 -8z"/>
<path d="M19276 30058 c3 -4 9 -8 15 -8 5 0 9 4 9 8 0 5 -7 9 -15 9 -8 0 -12
-4 -9 -9z"/>
<path d="M19580 30051 c0 -10 19 -25 25 -20 1 2 -3 10 -11 17 -8 7 -14 8 -14
3z"/>
<path d="M19080 30042 c0 -5 7 -9 15 -9 8 0 12 4 9 9 -3 4 -9 8 -15 8 -5 0 -9
-4 -9 -8z"/>
<path d="M19465 30030 c3 -5 8 -10 11 -10 2 0 4 5 4 10 0 6 -5 10 -11 10 -5 0
-7 -4 -4 -10z"/>
<path d="M20946 29991 c-4 -5 -2 -12 3 -15 5 -4 12 -2 15 3 4 5 2 12 -3 15 -5
4 -12 2 -15 -3z"/>
<path d="M21365 29970 c-3 -6 1 -7 9 -4 18 7 21 14 7 14 -6 0 -13 -4 -16 -10z"/>
<path d="M21509 29963 c-13 -16 -12 -17 4 -4 16 13 21 21 13 21 -2 0 -10 -8
-17 -17z"/>
<path d="M22550 29899 c0 -5 5 -7 10 -4 6 3 10 8 10 11 0 2 -4 4 -10 4 -5 0
-10 -5 -10 -11z"/>
<path d="M22665 29900 c-3 -5 1 -10 9 -10 9 0 16 5 16 10 0 6 -4 10 -9 10 -6
0 -13 -4 -16 -10z"/>
<path d="M23020 29896 c0 -2 7 -7 16 -10 8 -3 12 -2 9 4 -6 10 -25 14 -25 6z"/>
<path d="M23264 29891 c4 -7 -2 -15 -16 -20 -22 -9 -22 -10 -2 -10 24 -1 40
24 22 35 -7 4 -8 3 -4 -5z"/>
<path d="M23432 29884 c10 -10 20 -16 22 -13 3 3 -5 11 -17 18 -21 13 -21 12
-5 -5z"/>
<path d="M16620 29881 c0 -6 4 -13 10 -16 6 -3 7 1 4 9 -7 18 -14 21 -14 7z"/>
<path d="M23548 29878 c5 -5 16 -8 23 -6 8 3 3 7 -10 11 -17 4 -21 3 -13 -5z"/>
<path d="M23640 29870 c0 -5 5 -10 11 -10 5 0 7 5 4 10 -3 6 -8 10 -11 10 -2
0 -4 -4 -4 -10z"/>
<path d="M23708 29873 c7 -3 16 -2 19 1 4 3 -2 6 -13 5 -11 0 -14 -3 -6 -6z"/>
<path d="M24555 29842 c3 -3 -4 -12 -15 -19 -17 -12 -24 -12 -36 -2 -8 6 -17
9 -21 5 -3 -3 -1 -6 5 -6 23 0 12 -19 -38 -70 -28 -27 -59 -50 -69 -50 -10 0
-21 -9 -24 -20 -3 -11 -12 -20 -21 -20 -9 0 -16 -8 -16 -20 0 -15 -7 -20 -25
-20 -14 0 -25 -4 -25 -9 0 -5 -16 -16 -35 -25 -19 -9 -35 -23 -35 -31 0 -8 -9
-15 -20 -15 -13 0 -20 -7 -20 -19 0 -10 -9 -21 -20 -24 -11 -3 -20 -12 -20
-21 0 -9 -8 -16 -20 -16 -11 0 -20 -4 -20 -10 0 -5 -7 -10 -15 -10 -8 0 -19
-9 -25 -20 -6 -11 -17 -20 -25 -20 -8 0 -15 -5 -15 -12 0 -17 -81 -88 -102
-88 -10 0 -18 -7 -18 -16 0 -9 -9 -18 -20 -21 -11 -3 -20 -14 -20 -24 0 -11
-6 -19 -14 -19 -7 0 -19 -6 -25 -14 -7 -8 -26 -18 -43 -21 -18 -4 -32 -15 -35
-26 -3 -10 -14 -19 -24 -19 -12 0 -19 -7 -19 -19 0 -10 -9 -21 -20 -24 -11 -3
-20 -12 -20 -21 0 -9 -8 -16 -20 -16 -11 0 -20 -4 -20 -10 0 -5 -7 -10 -15
-10 -8 0 -19 -9 -25 -20 -6 -11 -17 -20 -25 -20 -8 0 -15 -5 -15 -12 0 -17
-81 -88 -100 -88 -10 0 -20 -9 -23 -20 -3 -11 -12 -20 -21 -20 -9 0 -16 -8
-16 -20 0 -13 -7 -20 -19 -20 -10 0 -21 -9 -24 -20 -4 -15 -14 -20 -37 -20
-23 0 -33 -5 -37 -20 -3 -11 -14 -20 -24 -20 -12 0 -19 -7 -19 -19 0 -10 -9
-21 -20 -24 -11 -3 -20 -12 -20 -21 0 -9 -8 -16 -19 -16 -11 0 -56 -36 -101
-80 -45 -44 -90 -80 -100 -80 -10 0 -20 -9 -23 -20 -3 -11 -12 -20 -21 -20 -9
0 -16 -8 -16 -20 0 -13 -7 -20 -19 -20 -10 0 -21 -9 -24 -19 -3 -11 -17 -22
-35 -26 -17 -3 -36 -13 -43 -21 -6 -8 -18 -14 -25 -14 -8 0 -14 -9 -14 -20 0
-12 -7 -20 -16 -20 -9 0 -18 -9 -21 -20 -3 -11 -14 -20 -24 -20 -11 0 -19 -4
-19 -10 0 -5 -5 -10 -11 -10 -6 0 -24 -13 -40 -29 -16 -16 -29 -34 -29 -40 0
-6 -7 -11 -15 -11 -8 0 -19 -9 -25 -20 -6 -11 -17 -20 -25 -20 -8 0 -15 -4
-15 -10 0 -5 -8 -10 -19 -10 -10 0 -21 -9 -24 -20 -3 -11 -12 -20 -21 -20 -9
0 -16 -8 -16 -20 0 -13 -7 -20 -19 -20 -10 0 -21 -9 -24 -19 -3 -11 -17 -22
-35 -26 -17 -3 -44 -21 -60 -39 -15 -18 -36 -35 -45 -39 -9 -3 -17 -13 -17
-22 0 -8 -9 -15 -20 -15 -11 0 -20 -5 -20 -11 0 -6 -13 -24 -29 -40 -16 -16
-34 -29 -40 -29 -6 0 -11 -4 -11 -10 0 -5 -7 -10 -15 -10 -8 0 -19 -9 -25 -20
-6 -11 -17 -20 -25 -20 -8 0 -15 -4 -15 -10 0 -5 -9 -10 -20 -10 -12 0 -20 -7
-20 -16 0 -9 -9 -18 -20 -21 -11 -3 -20 -14 -20 -24 0 -12 -7 -19 -20 -19 -12
0 -20 -7 -20 -16 0 -9 -9 -18 -20 -21 -11 -3 -20 -14 -20 -24 0 -14 -7 -19
-29 -19 -17 0 -35 -8 -43 -18 -7 -10 -21 -21 -30 -25 -10 -3 -18 -13 -18 -22
0 -8 -9 -15 -20 -15 -11 0 -20 -5 -20 -11 0 -7 -12 -23 -27 -38 l-28 -25 30
-7 c26 -7 24 -7 -12 -6 -23 1 -41 -2 -40 -6 1 -5 -11 -15 -28 -22 l-30 -12 27
-8 c16 -4 35 -5 43 -2 8 4 17 2 20 -3 4 -6 12 -10 18 -10 7 0 6 4 -3 10 -12 8
-11 10 7 10 16 0 21 -4 17 -15 -4 -10 0 -15 16 -15 12 0 31 -5 42 -11 15 -8
27 -8 44 2 18 9 27 10 36 1 8 -8 5 -9 -12 -5 -17 4 -21 3 -16 -6 5 -7 10 -10
13 -8 2 3 20 -1 38 -9 25 -10 36 -11 41 -2 5 8 11 6 19 -5 7 -9 21 -18 31 -20
10 -2 29 -8 41 -15 27 -15 33 -15 29 1 -1 6 -1 9 1 5 3 -5 17 -8 31 -9 l27 -1
-25 -8 c-14 -4 -22 -8 -18 -9 4 -1 30 -10 58 -21 29 -11 48 -15 44 -9 -4 8 -3
9 5 5 6 -4 20 -2 29 5 12 10 11 7 -3 -10 -17 -20 -17 -23 -3 -18 9 3 18 2 20
-3 2 -5 22 -10 45 -11 23 -2 39 -7 36 -12 -6 -10 28 -37 39 -31 5 3 8 1 8 -4
0 -13 50 -33 62 -26 7 4 8 2 4 -4 -3 -6 2 -16 13 -22 17 -9 19 -7 16 10 -2 12
0 18 6 15 5 -4 7 -10 5 -14 -3 -4 0 -13 5 -21 7 -12 11 -13 18 -2 6 11 9 10
13 -5 3 -10 18 -25 34 -33 16 -8 32 -19 36 -25 5 -6 8 -4 8 4 0 8 9 3 20 -12
29 -36 84 -68 106 -61 12 4 15 3 7 -3 -8 -6 1 -19 29 -42 22 -19 47 -34 54
-34 7 0 11 -4 9 -8 -3 -3 1 -12 9 -18 11 -9 15 -9 19 1 4 9 6 7 6 -4 1 -21 50
-60 64 -51 5 3 7 1 3 -5 -3 -6 -2 -13 4 -17 5 -3 10 -2 10 3 0 6 6 12 14 15
11 4 13 -1 10 -18 -6 -31 37 -80 54 -63 9 9 15 9 24 0 15 -15 42 -16 33 -1 -4
6 -9 8 -12 5 -3 -3 -12 2 -20 10 -13 12 -13 17 -1 32 12 16 11 16 -6 2 -18
-14 -19 -14 -7 8 l12 23 -31 -16 c-26 -13 -29 -19 -20 -31 7 -7 17 -11 23 -7
6 4 7 1 3 -6 -6 -9 -13 -8 -27 5 -16 15 -17 19 -4 37 17 24 33 29 98 27 27 -1
47 4 47 10 0 5 -18 10 -40 10 -22 0 -40 5 -40 10 0 6 7 10 16 10 9 0 18 9 21
20 3 11 13 20 23 20 19 0 100 71 100 88 0 7 7 12 15 12 8 0 19 9 25 20 6 11
17 20 25 20 8 0 15 5 15 10 0 6 5 10 11 10 14 0 69 55 69 69 0 6 9 11 20 11
11 0 20 7 20 15 0 9 8 18 18 22 9 3 27 15 39 26 17 15 35 19 83 18 34 -1 60 3
60 9 0 5 -18 10 -40 10 -22 0 -40 5 -40 10 0 6 7 10 16 10 9 0 18 9 21 20 3
11 14 20 24 20 11 0 19 6 19 14 0 7 9 16 21 19 11 3 23 15 26 26 3 12 12 21
19 21 8 0 14 5 14 10 0 6 7 10 15 10 8 0 19 9 25 20 6 11 17 20 25 20 8 0 15
5 15 10 0 6 5 10 11 10 14 0 69 55 69 69 0 6 9 11 20 11 11 0 20 7 20 15 0 9
10 20 23 24 12 5 34 21 49 35 15 14 32 26 38 26 5 0 10 4 10 9 0 5 9 11 20 14
11 3 20 12 20 21 0 9 8 16 20 16 13 0 20 7 20 19 0 10 9 21 20 24 11 3 20 12
20 21 0 9 8 16 20 16 11 0 20 5 20 10 0 6 7 10 15 10 8 0 19 9 25 20 6 11 17
20 25 20 8 0 15 5 15 10 0 6 5 10 11 10 14 0 69 55 69 69 0 6 9 11 20 11 11 0
20 7 20 15 0 9 11 19 23 24 13 5 35 23 49 40 14 16 38 33 53 37 15 4 30 15 32
25 3 11 14 19 24 19 12 0 19 7 19 20 0 12 7 20 16 20 9 0 18 9 21 20 3 11 14
20 24 20 11 0 19 5 19 10 0 6 7 10 15 10 8 0 19 9 25 20 6 11 17 20 25 20 8 0
15 5 15 10 0 6 5 10 11 10 14 0 69 55 69 69 0 6 8 11 19 11 10 0 21 9 24 20 3
11 12 20 21 20 9 0 16 8 16 20 0 13 7 20 20 20 11 0 23 6 26 14 3 8 19 18 36
21 18 4 32 15 35 26 5 16 15 19 64 19 33 0 59 4 59 10 0 6 -18 10 -40 10 -22
0 -40 5 -40 10 0 6 7 10 16 10 9 0 18 9 21 20 3 11 14 20 24 20 11 0 19 5 19
10 0 6 7 10 15 10 8 0 19 9 25 20 6 11 17 20 25 20 8 0 15 7 15 15 0 8 6 15
13 15 8 0 27 16 43 35 16 19 36 35 45 35 9 0 19 9 22 20 3 11 12 20 21 20 9 0
16 8 16 20 0 13 7 20 20 20 11 0 23 6 26 14 3 8 19 18 36 21 18 4 32 15 35 26
3 10 14 19 24 19 12 0 19 7 19 19 0 10 9 21 20 24 11 3 20 12 20 21 0 9 8 16
18 16 21 0 102 71 102 88 0 7 7 12 15 12 8 0 19 9 25 20 6 11 17 20 25 20 8 0
15 5 15 10 0 6 8 10 19 10 10 0 21 9 24 20 3 11 12 20 21 20 9 0 16 8 16 20 0
13 7 20 20 20 11 0 23 6 26 14 3 8 19 18 36 21 17 4 32 15 35 25 3 10 13 20
24 23 10 3 19 12 19 20 0 8 9 17 20 20 11 3 20 12 20 21 0 9 8 16 18 16 21 0
102 71 102 88 0 7 7 12 15 12 8 0 19 9 25 20 6 11 17 20 25 20 8 0 15 5 15 10
0 6 9 10 20 10 12 0 20 7 20 16 0 9 9 18 20 21 11 3 20 14 20 24 0 12 7 19 20
19 11 0 20 7 20 15 0 9 8 18 18 22 9 3 27 15 39 26 17 15 35 19 83 18 34 -1
60 3 60 9 0 5 -18 10 -40 10 -42 0 -54 14 -20 23 28 7 27 47 -2 47 -12 0 -18
3 -15 7 4 3 26 0 49 -8 32 -10 42 -11 46 -1 2 7 8 12 13 12 6 0 7 -4 4 -10 -3
-5 3 -10 14 -10 12 0 21 5 21 10 0 6 -4 10 -10 10 -5 0 -10 5 -10 11 0 8 4 9
13 0 8 -6 17 -8 21 -4 4 4 4 0 0 -10 -3 -9 -2 -17 4 -17 6 0 13 6 15 13 4 9 6
9 6 -1 1 -7 5 -11 11 -7 5 3 6 13 3 23 -6 16 -5 16 13 1 10 -8 29 -14 42 -13
12 0 22 -3 22 -7 0 -5 9 -4 19 3 11 7 17 16 15 20 -9 15 3 8 17 -9 10 -11 10
-14 2 -9 -7 4 -13 2 -13 -3 0 -6 16 -11 36 -11 21 0 33 4 29 10 -3 6 1 10 10
10 9 0 14 -4 11 -8 -3 -5 22 -8 55 -8 32 0 59 4 59 8 0 5 5 8 11 8 5 0 8 -4 5
-8 -2 -4 6 -9 20 -10 17 -1 24 3 25 16 0 15 1 15 7 0 6 -13 21 -16 94 -15 47
1 84 5 82 9 -3 5 0 8 5 8 20 0 11 16 -9 17 -11 1 -18 -2 -16 -6 3 -4 -1 -8 -9
-8 -8 0 -12 4 -9 9 3 4 -4 8 -15 8 -12 0 -21 -5 -21 -11 0 -5 6 -7 13 -3 9 5
9 4 0 -6 -11 -11 -17 -10 -35 7 -17 15 -36 20 -73 19 -27 -1 -56 -5 -62 -9 -8
-5 -13 -4 -13 2 0 19 -28 12 -46 -11 l-16 -23 5 23 c4 18 3 21 -8 12 -10 -8
-14 -8 -17 1 -5 15 -98 22 -98 8 0 -5 5 -9 10 -9 6 0 10 -6 10 -12 -1 -7 -10
-2 -20 11 -20 24 -57 23 -45 -1 4 -7 1 -6 -7 2 -16 18 -48 25 -48 10 0 -6 5
-8 10 -5 6 3 10 1 10 -5 0 -6 -8 -10 -17 -8 -10 2 -17 10 -15 16 1 7 -4 12
-12 12 -8 0 -22 3 -32 7 -13 5 -16 3 -11 -9 4 -12 1 -14 -14 -11 -10 3 -19 9
-19 14 0 5 -25 9 -55 9 -36 0 -54 -4 -53 -11 2 -6 -3 -14 -10 -16 -7 -3 -10 1
-7 9 4 10 -2 14 -22 13 -15 -1 -32 2 -38 6 -5 3 -17 6 -25 7 -161 2 -466 14
-472 18 -4 3 -8 0 -8 -5 0 -14 -47 -15 -55 -2 -7 12 -103 12 -111 0 -3 -5 -11
-9 -17 -9 -7 0 -6 4 3 10 17 11 13 12 -160 17 -63 2 -148 5 -188 7 -39 2 -75
0 -78 -5 -3 -5 -11 -9 -17 -9 -8 0 -8 3 2 9 9 6 5 9 -14 9 -19 0 -23 -3 -14
-9 11 -7 10 -9 -3 -9 -9 0 -18 6 -21 13 -3 8 -10 6 -22 -8 -9 -11 -13 -14 -9
-6 4 9 2 12 -7 9 -8 -3 -13 -11 -11 -17 2 -9 -3 -9 -20 0 -31 16 -31 16 -13
23 9 3 13 2 10 -4 -9 -15 7 -12 29 5 18 14 8 15 -95 15 -63 0 -169 2 -236 3
-67 2 -120 0 -117 -5 3 -4 -2 -8 -10 -8 -9 0 -16 7 -16 15 0 11 -9 15 -30 13
-16 -1 -30 -7 -30 -13 0 -6 -3 -6 -8 1 -4 6 -15 11 -24 11 -10 0 -16 -3 -13
-5z m80 -23 c2 -3 -14 -6 -36 -8 -22 -1 -39 2 -36 6 5 8 64 10 72 2z m98 -8
c-4 -16 -8 -17 -18 -8 -10 10 -10 13 4 19 9 4 17 7 18 7 0 1 -1 -8 -4 -18z
m152 9 c3 -5 1 -10 -4 -10 -6 0 -11 5 -11 10 0 6 2 10 4 10 3 0 8 -4 11 -10z
m-98 -6 c-3 -3 -12 -4 -19 -1 -8 3 -5 6 6 6 11 1 17 -2 13 -5z m274 -17 c-13
-13 -26 -3 -16 12 3 6 11 8 17 5 6 -4 6 -10 -1 -17z m-376 3 c3 -5 1 -10 -4
-10 -6 0 -11 5 -11 10 0 6 2 10 4 10 3 0 8 -4 11 -10z m145 0 c0 -5 -4 -10 -9
-10 -6 0 -13 5 -16 10 -3 6 1 10 9 10 9 0 16 -4 16 -10z m171 -13 c-10 -9 -11
-8 -5 6 3 10 9 15 12 12 3 -3 0 -11 -7 -18z m295 11 c3 -4 -1 -5 -10 -4 -8 1
-18 5 -22 8 -3 4 1 5 10 4 8 -1 18 -5 22 -8z m44 8 c0 -2 -7 -6 -15 -10 -8 -3
-15 -1 -15 4 0 6 7 10 15 10 8 0 15 -2 15 -4z m-816 -14 c2 -4 -4 -9 -15 -9
-11 -1 -17 2 -14 8 7 11 22 12 29 1z m91 -2 c-3 -5 -16 -10 -28 -9 -20 1 -20
2 3 9 14 4 26 8 28 9 2 1 0 -3 -3 -9z m295 0 c-8 -5 -19 -10 -25 -10 -5 0 -3
5 5 10 8 5 20 10 25 10 6 0 3 -5 -5 -10z m45 -8 c-3 -3 -11 0 -18 7 -9 10 -8
11 6 5 10 -3 15 -9 12 -12z m582 12 c-3 -3 -12 -4 -19 -1 -8 3 -5 6 6 6 11 1
17 -2 13 -5z m-350 -10 c-3 -3 -12 -4 -19 -1 -8 3 -5 6 6 6 11 1 17 -2 13 -5z
m1628 -44 c-3 -5 -12 -10 -18 -10 -7 0 -6 4 3 10 19 12 23 12 15 0z m-329 -28
c-4 -3 -14 2 -24 12 -16 18 -16 18 6 6 13 -6 21 -14 18 -18z m479 18 c3 -5 2
-10 -4 -10 -5 0 -13 5 -16 10 -3 6 -2 10 4 10 5 0 13 -4 16 -10z m75 -5 c-14
-17 -30 -20 -30 -6 0 5 8 12 18 14 9 3 19 5 21 6 2 0 -2 -6 -9 -14z m-653 -11
c-3 -3 -12 -4 -19 -1 -8 3 -5 6 6 6 11 1 17 -2 13 -5z m-4757 -2368 c0 -2 -7
-7 -16 -10 -8 -3 -12 -2 -9 4 6 10 25 14 25 6z m354 -52 c9 -3 16 -11 16 -16
0 -7 -4 -7 -12 0 -7 5 -22 12 -33 15 -15 3 -16 5 -3 6 9 0 23 -2 32 -5z m-14
-47 c0 -4 -10 -3 -21 4 -17 9 -19 13 -8 20 13 8 28 -5 29 -24z m134 -38 c-4
-8 4 -9 27 -5 30 5 31 5 10 -4 -28 -12 -56 -6 -46 10 3 5 8 10 11 10 3 0 2 -5
-2 -11z m171 -89 c3 -5 1 -10 -4 -10 -6 0 -11 5 -11 10 0 6 2 10 4 10 3 0 8
-4 11 -10z m49 -31 c-3 -5 -10 -7 -15 -3 -5 3 -7 10 -3 15 3 5 10 7 15 3 5 -3
7 -10 3 -15z m153 -64 c0 -8 -4 -12 -9 -9 -5 3 -6 10 -3 15 9 13 12 11 12 -6z
m153 -100 c0 -8 -9 -13 -19 -12 -14 1 -17 5 -11 13 6 6 7 14 3 18 -4 4 0 4 10
0 9 -3 17 -12 17 -19z m75 -34 c3 -5 0 -13 -6 -17 -8 -5 -9 -3 -4 6 6 10 4 12
-8 7 -10 -3 -17 -2 -17 3 0 13 27 13 35 1z m92 -92 c1 -10 -3 -22 -9 -25 -7
-4 -8 -2 -4 5 4 6 3 18 -3 25 -8 9 -7 13 2 13 7 0 14 -8 14 -18z"/>
<path d="M16691 29724 c0 -11 3 -14 6 -6 3 7 2 16 -1 19 -3 4 -6 -2 -5 -13z"/>
<path d="M27200 29724 c0 -8 5 -12 10 -9 6 3 10 0 10 -7 0 -9 3 -9 10 2 5 8
10 10 10 4 0 -6 16 -11 35 -12 20 -1 33 3 30 8 -3 5 -1 12 5 15 6 4 9 1 8 -6
-2 -8 7 -13 21 -13 28 -1 40 19 14 22 -62 7 -89 8 -98 3 -17 -9 -35 -10 -35 0
0 5 -4 9 -10 9 -5 0 -10 -7 -10 -16z"/>
<path d="M27385 29720 c-9 -14 24 -25 37 -12 8 8 17 8 32 0 25 -14 26 -13 37
4 7 10 9 10 9 1 0 -7 4 -13 10 -13 5 0 7 7 4 15 -4 11 -21 15 -56 15 -30 0
-47 -4 -43 -10 3 -5 -1 -10 -10 -10 -9 0 -13 5 -10 10 3 6 4 10 1 10 -3 0 -8
-5 -11 -10z"/>
<path d="M27527 29714 c3 -7 19 -12 39 -11 35 2 48 16 17 18 -10 1 -28 3 -40
4 -14 1 -20 -2 -16 -11z"/>
<path d="M27614 29711 c3 -4 26 -8 51 -8 25 0 48 4 51 8 3 5 -20 9 -51 9 -31
0 -54 -4 -51 -9z"/>
<path d="M27735 29710 c3 -5 10 -10 16 -10 5 0 9 5 9 10 0 6 -7 10 -16 10 -8
0 -12 -4 -9 -10z"/>
<path d="M27770 29716 c0 -2 7 -7 16 -10 8 -3 12 -2 9 4 -6 10 -25 14 -25 6z"/>
<path d="M27988 29703 c7 -3 16 -2 19 1 4 3 -2 6 -13 5 -11 0 -14 -3 -6 -6z"/>
<path d="M28247 29694 c-4 -4 -7 -17 -7 -28 1 -19 1 -20 11 -3 11 19 8 43 -4
31z"/>
<path d="M28270 29690 c0 -5 5 -10 11 -10 5 0 7 5 4 10 -3 6 -8 10 -11 10 -2
0 -4 -4 -4 -10z"/>
<path d="M16676 29675 c-9 -26 -7 -32 5 -12 6 10 9 21 6 23 -2 3 -7 -2 -11
-11z"/>
<path d="M28286 29675 c-14 -11 -16 -15 -5 -15 12 0 12 -2 -1 -10 -12 -8 -11
-10 8 -10 12 0 22 -4 22 -10 0 -5 7 -10 15 -10 8 0 15 5 15 11 0 5 -4 8 -9 5
-5 -3 -11 5 -13 18 -4 19 -1 22 17 20 12 -1 28 2 36 7 9 6 1 9 -26 9 -22 -1
-49 -7 -59 -15z"/>
<path d="M28393 29683 c11 -10 -32 -35 -46 -27 -9 6 -9 5 0 -8 7 -8 12 -17 10
-19 -1 -2 6 5 15 16 14 17 19 18 30 6 7 -8 8 -11 2 -8 -7 4 -14 0 -18 -8 -4
-11 1 -14 19 -13 13 1 21 6 18 11 -6 10 15 27 35 27 6 0 12 -5 12 -11 0 -6 -7
-8 -16 -5 -10 4 -14 1 -12 -6 2 -6 17 -13 33 -15 24 -3 26 -2 17 10 -10 12 -8
13 13 9 14 -2 22 -8 19 -13 -3 -5 12 -8 33 -8 38 1 38 1 8 9 -16 4 -24 8 -16
9 8 1 11 7 7 17 -3 8 -2 12 3 9 5 -3 12 -1 16 5 4 6 -5 10 -20 10 -19 0 -25
-4 -22 -13 3 -8 -1 -14 -9 -14 -7 0 -11 4 -8 9 3 4 -1 8 -8 8 -10 0 -9 3 2 10
10 6 4 9 -20 8 -19 0 -41 -6 -49 -12 -11 -8 -13 -8 -7 2 5 8 -1 12 -20 12 -15
0 -24 -3 -21 -7z"/>
<path d="M28587 29665 c-17 -12 -25 -31 -9 -21 5 3 21 -2 37 -10 15 -8 33 -14
39 -13 43 5 66 -2 66 -21 0 -17 -7 -20 -40 -20 -34 0 -40 -3 -40 -21 0 -21
-152 -179 -172 -179 -13 0 -68 -56 -68 -69 0 -6 -5 -11 -11 -11 -14 0 -69 -55
-69 -70 0 -7 -17 -10 -45 -9 -24 2 -48 0 -51 -4 -4 -4 -2 -7 4 -7 7 0 12 -15
12 -35 0 -34 -1 -35 -39 -35 -36 0 -47 -8 -121 -80 -45 -44 -86 -80 -92 -80
-13 0 -68 -56 -68 -69 0 -6 -5 -11 -11 -11 -6 0 -24 -13 -40 -29 -16 -16 -29
-34 -29 -40 0 -6 -22 -11 -52 -12 -29 0 -47 -3 -40 -6 6 -2 12 -20 12 -39 0
-33 -1 -34 -40 -34 -33 0 -40 -3 -40 -20 0 -17 -7 -20 -40 -20 -34 0 -40 -3
-40 -22 0 -20 -73 -98 -92 -98 -13 0 -68 -56 -68 -69 0 -6 -5 -11 -11 -11 -6
0 -24 -13 -40 -29 -16 -16 -29 -34 -29 -40 0 -6 -22 -11 -52 -12 -29 0 -47 -3
-40 -6 6 -2 12 -20 12 -39 0 -33 -1 -34 -39 -34 -36 0 -47 -8 -121 -80 -45
-44 -86 -80 -92 -80 -13 0 -68 -56 -68 -69 0 -6 -5 -11 -11 -11 -6 0 -24 -13
-40 -29 -16 -16 -29 -34 -29 -40 0 -6 -22 -11 -52 -12 -29 0 -47 -3 -40 -6 6
-2 12 -20 12 -39 0 -33 -1 -34 -39 -34 -36 0 -47 -8 -121 -80 -45 -44 -86 -80
-92 -80 -13 0 -68 -56 -68 -69 0 -6 -5 -11 -11 -11 -19 0 -69 -58 -69 -79 0
-18 -6 -21 -40 -21 -38 0 -40 -1 -40 -31 0 -30 -1 -31 -40 -27 -36 3 -40 1
-40 -19 0 -20 -5 -23 -40 -23 -34 0 -40 -3 -40 -21 0 -21 -152 -179 -172 -179
-18 0 -68 -58 -68 -79 0 -18 -6 -21 -40 -21 -38 0 -40 -1 -40 -31 0 -30 -1
-31 -40 -27 -36 3 -40 1 -40 -19 0 -20 -5 -23 -40 -23 -34 0 -40 -3 -40 -21 0
-21 -152 -179 -172 -179 -13 0 -68 -56 -68 -69 0 -6 -5 -11 -11 -11 -14 0 -69
-55 -69 -70 0 -7 -17 -10 -45 -9 -24 2 -48 0 -51 -4 -4 -4 -2 -7 4 -7 7 0 12
-15 12 -35 0 -34 -1 -35 -39 -35 -36 0 -47 -8 -121 -80 -45 -44 -86 -80 -92
-80 -13 0 -68 -56 -68 -69 0 -6 -5 -11 -11 -11 -6 0 -24 -13 -40 -29 -16 -16
-29 -34 -29 -40 0 -6 -22 -11 -52 -12 -29 0 -47 -3 -40 -6 6 -2 12 -20 12 -39
0 -33 -1 -34 -40 -34 -33 0 -40 -3 -40 -20 0 -17 -7 -20 -40 -20 -34 0 -40 -3
-40 -22 0 -20 -73 -98 -92 -98 -18 0 -68 -59 -68 -79 0 -18 -6 -21 -40 -21
-38 0 -40 -2 -40 -30 0 -29 -1 -30 -52 -31 -29 0 -47 -3 -40 -6 6 -2 12 -20
12 -39 0 -33 -1 -34 -39 -34 -36 0 -47 -8 -121 -80 -45 -44 -86 -80 -92 -80
-13 0 -68 -56 -68 -69 0 -6 -5 -11 -11 -11 -6 0 -24 -13 -40 -29 -16 -16 -29
-34 -29 -40 0 -6 -22 -11 -52 -12 -29 0 -47 -3 -40 -6 6 -2 12 -20 12 -39 0
-33 -1 -34 -39 -34 -30 0 -46 -7 -75 -35 -21 -19 -41 -33 -46 -30 -4 3 -7 21
-6 40 1 19 -3 35 -8 35 -6 0 -5 5 2 12 15 15 15 45 0 54 -7 4 -8 3 -4 -4 9
-15 -11 -52 -27 -52 -7 0 -6 4 3 10 8 5 11 10 5 10 -5 0 -5 4 2 8 17 11 -1 36
-21 29 -9 -4 -16 -12 -16 -18 0 -8 5 -7 17 2 15 13 15 12 4 -9 -6 -12 -8 -28
-4 -35 4 -6 8 -18 9 -25 2 -8 6 -17 10 -20 4 -4 4 1 1 11 -4 11 -3 16 4 12 5
-4 8 -20 5 -35 -2 -16 2 -37 9 -46 7 -10 10 -25 8 -34 -3 -9 3 -24 12 -34 9
-9 11 -16 5 -16 -6 0 -8 -5 -5 -10 4 -6 11 -7 17 -4 7 5 7 1 1 -11 -11 -19 -5
-65 8 -65 5 0 6 -7 2 -15 -3 -9 3 -23 13 -31 11 -9 13 -13 6 -9 -8 4 -11 -1
-8 -17 3 -13 5 -25 6 -28 3 -8 7 -24 8 -38 1 -7 6 -11 10 -8 4 2 8 -4 8 -14 0
-10 -4 -16 -8 -14 -4 2 -5 -6 -2 -18 3 -13 7 -45 10 -72 6 -58 11 -69 27 -59
9 5 9 3 1 -8 -10 -12 -12 -37 -5 -71 2 -10 27 -4 47 12 18 14 18 14 0 -7 -10
-12 -23 -21 -29 -20 -14 3 -20 -28 -13 -58 4 -17 11 -23 24 -19 15 5 15 4 -1
-6 -16 -10 -17 -21 -13 -68 3 -32 7 -75 8 -97 1 -22 6 -46 12 -54 8 -11 8 -13
-1 -8 -8 5 -11 -1 -9 -20 2 -16 4 -52 5 -81 1 -37 4 -51 13 -46 7 5 8 3 2 -7
-5 -8 -10 -25 -12 -37 -2 -17 1 -22 10 -16 11 6 11 5 0 -8 -11 -14 -10 -18 5
-28 17 -11 17 -11 0 -6 -17 5 -18 0 -16 -54 1 -33 -1 -63 -4 -67 -12 -11 -8
-25 5 -17 7 5 8 3 2 -7 -13 -22 -14 -40 -1 -32 9 5 9 3 1 -8 -6 -8 -11 -40
-10 -72 0 -31 -3 -57 -7 -57 -5 0 -6 -27 -4 -60 3 -34 1 -60 -4 -60 -13 0 -11
-34 4 -49 10 -11 9 -12 -3 -6 -10 6 -8 1 4 -13 10 -12 24 -19 30 -15 6 4 5 -1
-3 -10 -16 -20 -22 -22 -19 -5 2 7 -4 13 -12 13 -17 0 -22 -52 -6 -73 7 -9 5
-12 -5 -10 -8 2 -14 -7 -16 -22 -1 -14 0 -19 3 -13 4 10 9 9 21 -2 17 -18 37
-20 27 -3 -5 7 -3 8 7 2 8 -5 30 -9 49 -11 19 -1 57 -4 83 -8 38 -5 47 -3 41
7 -6 10 -5 10 7 1 17 -13 87 -15 95 -2 3 5 12 3 20 -5 10 -10 35 -14 89 -13
41 1 75 -1 75 -5 0 -5 30 -8 68 -8 61 0 144 -6 383 -25 l85 -7 885 1602 c866
1570 886 1605 958 1681 41 43 79 75 85 72 6 -4 4 2 -4 12 -14 17 -13 18 3 8
20 -10 87 12 87 30 0 4 4 6 8 3 13 -8 67 9 67 21 0 6 4 15 8 20 5 4 7 1 5 -7
-2 -11 4 -14 22 -13 14 2 46 3 73 3 33 1 47 5 47 15 0 19 17 28 26 14 5 -8 3
-9 -5 -4 -9 5 -12 2 -9 -10 1 -10 9 -20 17 -23 8 -3 11 0 7 6 -3 6 7 4 24 -5
17 -8 37 -12 45 -9 8 3 15 1 15 -5 0 -6 7 -9 15 -6 8 4 17 2 20 -2 3 -5 31
-24 62 -41 31 -18 63 -39 71 -47 8 -8 22 -11 30 -8 9 3 13 3 10 -1 -7 -6 38
-78 65 -106 7 -7 15 -17 18 -23 2 -5 6 -9 9 -8 3 1 6 -10 7 -24 0 -15 8 -30
16 -35 10 -5 13 -16 9 -30 -4 -17 -2 -20 13 -14 15 5 16 4 6 -8 -7 -8 -10 -19
-7 -25 3 -5 7 -28 8 -51 1 -22 4 -43 8 -45 8 -5 7 -35 -1 -50 -3 -6 -6 -23 -7
-40 -1 -16 -10 -55 -19 -85 -9 -30 -16 -60 -15 -66 1 -7 -4 -14 -13 -18 -8 -3
-15 -10 -15 -15 0 -6 -14 -34 -32 -63 -17 -29 -31 -63 -30 -75 1 -13 -2 -22
-6 -22 -19 3 -25 -2 -12 -11 13 -9 13 -10 0 -10 -18 0 -54 -55 -45 -69 3 -6 0
-13 -8 -18 -24 -15 -46 -60 -35 -71 6 -6 6 -12 -3 -17 -8 -5 -10 -4 -5 3 4 7
3 12 -3 12 -9 0 -25 -34 -26 -55 0 -6 -11 -21 -23 -33 -13 -13 -20 -27 -17
-32 4 -6 2 -10 -3 -10 -5 0 -15 -15 -23 -32 -7 -18 -16 -35 -19 -38 -4 -3 -20
-31 -37 -62 -20 -37 -27 -59 -19 -62 6 -2 4 -5 -5 -5 -18 -1 -42 -47 -33 -63
4 -7 2 -8 -4 -4 -7 4 -12 1 -12 -8 0 -9 -4 -16 -9 -16 -10 0 -27 -39 -23 -52
1 -5 -3 -8 -9 -8 -5 0 -7 -4 -4 -10 3 -5 1 -10 -5 -10 -6 0 -8 -4 -5 -10 3 -5
2 -10 -4 -10 -5 0 -23 -24 -39 -54 -22 -40 -26 -58 -18 -66 8 -8 7 -10 -5 -5
-11 4 -21 -6 -35 -37 -10 -24 -24 -49 -31 -56 -12 -12 -14 -19 -13 -37 1 -3
-6 -13 -15 -21 -8 -9 -13 -20 -9 -25 3 -5 -1 -12 -9 -15 -8 -3 -25 -28 -38
-57 -13 -29 -30 -58 -37 -65 -7 -8 -10 -17 -7 -22 3 -5 0 -10 -5 -12 -6 -2
-12 -13 -13 -25 0 -12 -4 -20 -8 -18 -9 6 -70 -111 -62 -119 3 -3 1 -6 -5 -6
-16 0 -44 -58 -36 -72 4 -6 3 -8 -3 -5 -6 4 -14 0 -17 -9 -9 -22 -8 -26 6 -18
7 4 8 3 4 -5 -4 -6 -11 -9 -16 -6 -4 3 -20 -18 -35 -46 -22 -43 -24 -53 -13
-67 11 -15 11 -15 -3 -4 -14 11 -29 -11 -123 -182 -58 -107 -106 -197 -106
-201 0 -3 5 -3 12 1 7 5 8 3 4 -5 -5 -7 -11 -10 -14 -7 -9 10 -34 -33 -26 -46
5 -7 3 -8 -6 -3 -10 6 -12 4 -7 -9 4 -9 3 -15 -1 -12 -8 4 -42 -54 -42 -69 1
-3 -6 -13 -15 -22 -9 -8 -14 -22 -11 -30 3 -8 2 -12 -3 -9 -11 7 -23 -22 -14
-36 3 -6 1 -8 -5 -4 -13 8 -84 -122 -75 -137 3 -6 2 -7 -4 -4 -11 7 -50 -71
-45 -88 2 -5 0 -6 -4 -2 -5 4 -20 -14 -34 -41 -14 -27 -40 -76 -58 -110 -18
-34 -30 -63 -27 -63 3 -1 13 -2 23 -4 9 -1 24 -5 32 -8 8 -3 53 -16 100 -27
262 -65 647 -202 832 -296 27 -14 54 -22 61 -18 7 4 9 3 4 -1 -4 -5 61 -44
144 -87 l151 -78 96 20 c166 33 308 43 545 37 241 -5 368 -22 573 -77 507
-135 933 -452 1221 -908 322 -511 482 -1222 444 -1976 -16 -313 -63 -640 -124
-871 l-13 -50 76 -190 c103 -254 176 -416 280 -620 411 -805 958 -1381 1774
-1867 l46 -28 0 -64 0 -65 -42 -5 c-24 -3 -950 -51 -2058 -107 -1108 -55
-2023 -104 -2033 -107 -15 -6 -3 -27 79 -132 298 -384 769 -1027 1109 -1515
292 -419 813 -1209 990 -1500 9 -15 84 -12 955 39 520 31 958 56 973 56 l28 0
-3 -662 -3 -663 -28 -80 c-39 -110 -80 -184 -146 -262 -104 -124 -237 -208
-426 -269 -55 -18 -93 -33 -85 -33 8 -1 352 24 764 54 412 30 761 55 775 55
14 1 62 4 105 8 l79 7 16 40 c15 36 16 475 19 4873 1 3009 6 4832 12 4830 5
-2 191 -173 414 -380 223 -208 410 -378 414 -378 5 0 145 142 312 315 167 173
305 315 307 315 1 0 145 -135 320 -300 174 -165 320 -299 324 -298 4 2 141
144 305 316 163 172 300 311 304 310 8 -3 251 -232 445 -419 55 -53 120 -115
145 -138 l45 -41 95 98 c146 150 424 443 465 490 21 23 41 42 46 42 5 0 152
-136 326 -301 l317 -301 50 53 c53 57 364 385 480 507 38 39 73 72 77 72 5 0
148 -133 319 -295 170 -162 314 -295 319 -295 5 0 78 73 162 162 85 90 199
210 255 268 55 58 120 127 145 153 l45 49 317 -302 c175 -166 321 -300 326
-298 4 2 142 144 306 316 l297 313 27 -23 c14 -14 157 -149 318 -301 160 -152
293 -277 295 -277 3 0 139 142 303 315 164 173 301 315 304 315 6 0 173 -155
473 -442 l166 -159 256 268 255 268 1 3743 c0 2586 -3 3773 -11 3840 -42 381
-319 683 -651 708 -74 5 -8627 360 -8928 370 -91 3 -187 7 -214 10 -30 2 -55
-1 -65 -9 -8 -7 -12 -7 -8 -1 4 8 -33 13 -126 18 -220 11 -495 20 -622 21 -66
0 -122 3 -125 7 -3 3 -110 9 -239 13 -129 3 -237 8 -240 10 -4 2 -111 6 -240
9 -128 4 -237 9 -243 12 -5 3 -16 0 -25 -8 -9 -7 -14 -8 -10 -2 8 13 -116 14
-129 2 -4 -4 -13 -3 -19 2 -17 14 -159 24 -150 11 3 -6 2 -11 -4 -11 -5 0 -12
4 -15 8 -3 5 -32 9 -64 9 -32 0 -64 3 -70 7 -7 4 -12 2 -12 -6 0 -10 -2 -10
-8 0 -6 9 -36 12 -111 9 -56 -2 -104 0 -107 4 -2 4 -47 7 -99 7 -53 0 -92 -4
-89 -9 3 -5 0 -9 -6 -9 -6 0 -9 -4 -6 -8 3 -5 -2 -9 -10 -9 -10 0 -11 4 -4 11
17 17 11 24 -30 31 -28 5 -46 3 -57 -7 -14 -11 -16 -11 -9 0 7 12 4 12 -14 2
-16 -8 -20 -9 -15 -1 5 8 -12 11 -57 10 -35 -1 -75 2 -88 6 -22 7 -23 6 -11
-9 12 -14 12 -16 -3 -10 -9 3 -16 9 -16 13 0 3 -37 7 -81 7 -49 1 -76 -2 -68
-7 11 -7 11 -9 1 -9 -7 0 -20 -7 -29 -15 -8 -9 -18 -13 -22 -10 -3 4 2 12 12
19 23 18 22 30 -3 23 -11 -3 -20 -1 -20 4 0 5 -5 9 -11 9 -5 0 -7 -6 -3 -12 6
-10 5 -10 -7 -1 -10 8 -86 14 -237 17 -123 3 -228 8 -234 12 -7 4 -8 3 -4 -4
4 -7 3 -12 -3 -12 -5 0 -13 5 -16 10 -5 8 -12 7 -23 -2 -12 -10 -14 -10 -8 0
4 6 3 12 -1 12 -5 0 -15 -6 -22 -12 -8 -7 -11 -8 -8 -2 4 8 -15 12 -61 13 -37
1 -78 5 -91 8 -19 5 -22 3 -16 -8 7 -11 6 -12 -6 -2 -18 15 -111 14 -102 -1 3
-6 3 -8 -2 -4 -4 4 -14 3 -21 -3 -8 -7 -14 -6 -20 2 -4 7 -3 9 4 5 6 -3 13 -2
17 4 4 6 -9 10 -32 10 -21 0 -49 3 -63 7 -22 6 -23 5 -12 -9 11 -13 11 -18 0
-24 -7 -4 -10 -4 -6 1 12 13 -12 35 -37 35 -14 0 -25 -7 -28 -17 -4 -16 -5
-16 -6 -1 -1 14 -10 16 -58 14 -32 -1 -69 1 -82 6 -15 6 -29 4 -39 -4 -12 -10
-14 -10 -8 -1 5 10 -8 12 -58 10 -40 -1 -62 -6 -58 -12 3 -5 -1 -4 -10 3 -14
11 -19 10 -31 -8 -10 -14 -17 -18 -22 -10 -5 8 -11 7 -23 -2 -15 -12 -16 -11
-4 4 19 24 8 35 -35 34 -32 -1 -38 -4 -37 -23 1 -15 -3 -20 -14 -15 -10 3 -11
7 -5 9 18 6 3 33 -18 33 -11 0 -19 -7 -19 -17 -1 -17 -2 -17 -13 -2 -10 14
-16 15 -30 4z m166 -2 c-7 -2 -13 -12 -13 -21 0 -13 -3 -13 -12 -4 -10 10 -10
15 2 22 8 5 20 9 25 9 6 0 4 -3 -2 -6z m157 -13 c8 -5 11 -10 5 -10 -5 0 -17
5 -25 10 -8 5 -10 10 -5 10 6 0 17 -5 25 -10z m-60 -16 c0 -8 -19 -13 -24 -6
-3 5 1 9 9 9 8 0 15 -2 15 -3z m61 -12 c-7 -2 -18 1 -23 6 -8 8 -4 9 13 5 13
-4 18 -8 10 -11z m60 0 c-7 -2 -18 1 -23 6 -8 8 -4 9 13 5 13 -4 18 -8 10 -11z
m86 12 c-3 -3 -12 -4 -19 -1 -8 3 -5 6 6 6 11 1 17 -2 13 -5z m1340 -60 c-3
-3 -12 -4 -19 -1 -8 3 -5 6 6 6 11 1 17 -2 13 -5z m153 -8 c-4 -4 -16 -4 -26
2 -16 9 -14 10 8 9 15 -1 23 -6 18 -11z m305 3 c4 -5 -2 -6 -11 -2 -11 4 -15
3 -11 -4 6 -10 -4 -11 -31 -4 -2 1 -1 5 2 9 7 11 45 12 51 1z m132 -14 c0 -8
-4 -12 -9 -9 -5 3 -6 10 -3 15 9 13 12 11 12 -6z m133 9 c0 -8 -19 -13 -24 -6
-3 5 1 9 9 9 8 0 15 -2 15 -3z m-780 -8 c0 -11 -19 -15 -25 -6 -3 5 1 10 9 10
9 0 16 -2 16 -4z m40 -6 c0 -5 -2 -10 -4 -10 -3 0 -8 5 -11 10 -3 6 -1 10 4
10 6 0 11 -4 11 -10z m1004 1 c-8 -8 -34 -10 -38 -2 -3 4 6 7 19 7 14 0 22 -2
19 -5z m-4406 -2584 c8 -10 6 -13 -9 -14 -19 -2 -25 8 -12 20 8 9 9 9 21 -6z
m139 -9 c-3 -8 -6 -5 -6 6 -1 11 2 17 5 13 3 -3 4 -12 1 -19z m-257 -2 c0 -2
-6 -9 -14 -15 -11 -9 -16 -9 -22 0 -4 7 -3 9 4 5 6 -3 13 -2 17 4 6 10 15 14
15 6z m-150 -71 c0 -1 -11 -12 -24 -24 -16 -15 -26 -19 -31 -12 -4 7 -1 10 7
9 7 -2 13 4 12 12 -1 9 7 16 17 16 11 0 19 -1 19 -1z m725 -93 c-2 -9 -4 -18
-4 -20 -1 -2 -6 0 -11 3 -8 5 -8 11 -1 19 6 7 7 17 3 21 -4 5 -2 5 5 2 6 -4
10 -15 8 -25z m-895 14 c0 -3 -4 -8 -10 -11 -5 -3 -10 -1 -10 4 0 6 5 11 10
11 6 0 10 -2 10 -4z m-25 -34 c-3 -3 -11 0 -18 7 -9 10 -8 11 6 5 10 -3 15 -9
12 -12z m-155 -36 c0 -3 -4 -8 -10 -11 -5 -3 -10 -1 -10 4 0 6 5 11 10 11 6 0
10 -2 10 -4z m84 -7 c-2 -4 -15 -6 -30 -6 -14 0 -21 2 -15 6 5 4 19 7 30 7 11
0 18 -3 15 -7z m1057 -13 c-6 -7 -7 -17 -3 -21 4 -5 1 -5 -6 -1 -9 6 -10 11
-3 20 6 7 7 17 3 21 -4 5 -1 5 6 1 9 -6 10 -11 3 -20z m-1121 -50 c0 -2 -8
-10 -17 -17 -16 -13 -17 -12 -4 4 13 16 21 21 21 13z m1213 -181 c-3 -9 -8
-14 -10 -11 -3 3 -2 9 2 15 9 16 15 13 8 -4z m-13 -65 c0 -21 -15 -27 -25 -10
-7 12 2 30 16 30 5 0 9 -9 9 -20z m-1350 -6 c0 -8 -19 -13 -24 -6 -3 5 1 9 9
9 8 0 15 -2 15 -3z m1364 -60 c3 -8 2 -12 -4 -9 -6 3 -10 10 -10 16 0 14 7 11
14 -7z m-23 -77 l11 -22 -21 22 c-22 23 -28 39 -11 28 5 -3 15 -16 21 -28z
m-61 -122 c0 -2 -6 -5 -13 -8 -8 -3 -14 1 -14 8 0 7 6 11 14 8 7 -3 13 -6 13
-8z m-75 -117 c-3 -11 -7 -23 -11 -27 -4 -3 -4 2 -1 12 4 9 2 17 -3 17 -5 0
-7 7 -4 15 9 22 23 8 19 -17z m-10 -47 c3 -5 2 -12 -3 -15 -5 -3 -9 1 -9 9 0
17 3 19 12 6z m-1476 -54 c8 -10 7 -14 -4 -14 -8 0 -12 4 -9 8 2 4 -2 10 -8
12 -8 4 -9 6 -2 6 6 1 17 -5 23 -12z m-45 -107 c-15 -22 -27 -40 -28 -40 0 0
-2 12 -3 27 0 15 2 21 6 14 6 -9 13 -4 25 13 9 14 19 26 21 26 3 0 -7 -18 -21
-40z m-108 -149 c2 -9 1 -9 -3 0 -4 8 -11 3 -18 -12 l-13 -24 1 26 c2 27 29
35 33 10z m1445 -33 c-10 -11 -11 -9 -5 6 6 15 4 17 -6 11 -9 -6 -11 -4 -5 4
5 9 10 10 18 2 8 -8 7 -14 -2 -23z m-1511 -52 c0 -3 -4 -8 -10 -11 -5 -3 -10
-1 -10 4 0 6 5 11 10 11 6 0 10 -2 10 -4z m-1980 -311 c9 -11 10 -19 3 -26 -8
-8 -13 -7 -18 2 -5 8 -4 10 3 5 7 -4 12 -3 12 3 0 5 -8 15 -17 20 -10 6 -13
11 -7 11 6 0 17 -7 24 -15z m1808 -30 c-3 -3 -9 2 -12 12 -6 14 -5 15 5 6 7
-7 10 -15 7 -18z m-1812 -78 c2 -12 0 -16 -2 -9 -3 6 -11 9 -17 5 -8 -5 -8 -2
0 9 7 8 11 18 8 21 -3 4 -2 5 2 2 4 -3 8 -16 9 -28z m6 -93 c-6 -12 -9 -7 -9
16 0 23 3 28 9 16 5 -9 5 -23 0 -32z m3152 -12 c3 -5 -1 -9 -9 -9 -8 0 -12 4
-9 9 3 4 7 8 9 8 2 0 6 -4 9 -8z m-1478 -104 c3 -4 -1 -5 -10 -4 -8 1 -18 5
-22 8 -3 4 1 5 10 4 8 -1 18 -5 22 -8z m-48 -93 c-6 -14 -13 -23 -15 -21 -5 5
15 46 22 46 3 0 -1 -11 -7 -25z m-1543 -8 c0 -13 -5 -24 -11 -24 -13 0 -13 15
-1 35 11 17 12 16 12 -11z m-38 -29 c2 -17 0 -19 -7 -8 -5 8 -6 18 -4 22 8 12
10 10 11 -14z m1503 -77 c7 -15 7 -22 -2 -27 -7 -4 -10 -4 -6 1 4 4 3 16 -3
26 -5 11 -7 19 -5 19 3 0 10 -9 16 -19z m-1476 -157 c3 -8 2 -12 -4 -9 -6 3
-10 10 -10 16 0 14 7 11 14 -7z m1310 -89 c-4 -8 -8 -15 -10 -15 -2 0 -4 7 -4
15 0 8 4 15 10 15 5 0 7 -7 4 -15z m12 -29 c0 -14 -5 -21 -9 -17 -4 4 -5 15
-1 24 9 24 12 21 10 -7z m-85 -103 c-12 -20 -14 -14 -5 12 4 9 9 14 11 11 3
-2 0 -13 -6 -23z m-151 -306 c0 -7 -4 -6 -10 3 -8 12 -10 12 -10 1 0 -8 -3
-12 -6 -8 -9 9 6 28 17 22 5 -4 9 -12 9 -18z m-1070 -121 c0 -2 -8 -10 -17
-17 -16 -13 -17 -12 -4 4 13 16 21 21 21 13z m990 -40 c0 -6 -4 -5 -9 3 -7 11
-9 11 -14 0 -3 -8 -4 -4 -4 8 1 17 4 19 14 11 7 -6 13 -16 13 -22z m-1016 -56
c-5 -5 -10 3 -11 18 -1 22 0 24 9 8 6 -10 6 -22 2 -26z m933 -62 c-3 -8 -6 -5
-6 6 -1 11 2 17 5 13 3 -3 4 -12 1 -19z m-917 -48 c8 -16 8 -18 -4 -14 -9 3
-14 11 -13 17 1 7 -4 11 -11 9 -8 -1 -11 2 -7 8 8 13 22 5 35 -20z m7 -75 c0
-8 -4 -12 -9 -9 -5 3 -6 10 -3 15 9 13 12 11 12 -6z m-22 -16 c11 -16 1 -19
-13 -3 -7 8 -8 14 -3 14 5 0 13 -5 16 -11z m210 -77 c-3 -3 -11 0 -18 7 -9 10
-8 11 6 5 10 -3 15 -9 12 -12z m40 8 c3 -5 2 -10 -4 -10 -5 0 -13 5 -16 10 -3
6 -2 10 4 10 5 0 13 -4 16 -10z"/>
<path d="M28780 29660 c0 -5 4 -10 9 -10 6 0 13 5 16 10 3 6 -1 10 -9 10 -9 0
-16 -4 -16 -10z"/>
<path d="M28245 29630 c-4 -6 3 -10 14 -10 25 0 27 6 6 13 -8 4 -17 2 -20 -3z"/>
<path d="M26380 29555 c-10 -12 -10 -15 4 -15 9 0 16 7 16 15 0 8 -2 15 -4 15
-2 0 -9 -7 -16 -15z"/>
<path d="M16765 29529 c-4 -6 -5 -12 -2 -15 2 -3 7 2 10 11 7 17 1 20 -8 4z"/>
<path d="M26223 29483 c-18 -7 -16 -23 2 -23 8 0 15 7 15 15 0 8 -1 15 -2 14
-2 0 -9 -3 -15 -6z"/>
<path d="M26143 29403 c-18 -7 -16 -23 2 -23 8 0 15 7 15 15 0 8 -1 15 -2 14
-2 0 -9 -3 -15 -6z"/>
<path d="M26063 29323 c-18 -7 -16 -23 2 -23 8 0 15 7 15 15 0 8 -1 15 -2 14
-2 0 -9 -3 -15 -6z"/>
<path d="M16846 29288 c3 -5 10 -6 15 -3 13 9 11 12 -6 12 -8 0 -12 -4 -9 -9z"/>
<path d="M25970 29250 l-25 -25 23 -3 c13 -2 26 -1 29 1 2 3 3 16 1 29 l-3 23
-25 -25z"/>
<path d="M25743 29083 c-18 -7 -16 -23 2 -23 8 0 15 7 15 15 0 8 -1 15 -2 14
-2 0 -9 -3 -15 -6z"/>
<path d="M25663 29003 c-18 -7 -16 -23 2 -23 8 0 15 7 15 15 0 8 -1 15 -2 14
-2 0 -9 -3 -15 -6z"/>
<path d="M16970 28921 c0 -6 4 -13 10 -16 6 -3 7 1 4 9 -7 18 -14 21 -14 7z"/>
<path d="M25583 28923 c-18 -7 -16 -23 2 -23 8 0 15 7 15 15 0 8 -1 15 -2 14
-2 0 -9 -3 -15 -6z"/>
<path d="M17016 28891 c-4 -6 -3 -18 2 -27 8 -15 10 -14 16 2 8 20 -8 42 -18
25z"/>
<path d="M25490 28850 l-25 -25 23 -3 c13 -2 26 -1 29 1 2 3 3 16 1 29 l-3 23
-25 -25z"/>
<path d="M17010 28830 c0 -5 5 -10 11 -10 5 0 7 5 4 10 -3 6 -8 10 -11 10 -2
0 -4 -4 -4 -10z"/>
<path d="M17088 28712 c5 -10 7 -27 7 -39 -1 -12 1 -20 5 -18 4 3 6 18 4 35
-3 23 0 29 9 24 6 -4 8 -3 4 1 -4 5 -14 10 -22 11 -11 2 -12 -3 -7 -14z"/>
<path d="M25263 28683 c-18 -7 -16 -23 2 -23 8 0 15 7 15 15 0 8 -1 15 -2 14
-2 0 -9 -3 -15 -6z"/>
<path d="M25183 28603 c-18 -7 -16 -23 2 -23 8 0 15 7 15 15 0 8 -1 15 -2 14
-2 0 -9 -3 -15 -6z"/>
<path d="M17140 28560 c-6 -11 -8 -20 -6 -20 3 0 10 9 16 20 6 11 8 20 6 20
-3 0 -10 -9 -16 -20z"/>
<path d="M25103 28523 c-18 -7 -16 -23 2 -23 8 0 15 7 15 15 0 8 -1 15 -2 14
-2 0 -9 -3 -15 -6z"/>
<path d="M17230 28399 c0 -5 5 -7 10 -4 6 3 10 8 10 11 0 2 -4 4 -10 4 -5 0
-10 -5 -10 -11z"/>
<path d="M17220 28367 c0 -2 6 -10 14 -16 11 -9 16 -9 22 1 4 7 4 10 -1 6 -4
-4 -14 -3 -22 3 -7 6 -13 9 -13 6z"/>
<path d="M24703 28203 c-18 -7 -16 -23 2 -23 8 0 15 7 15 15 0 8 -1 15 -2 14
-2 0 -9 -3 -15 -6z"/>
<path d="M24623 28123 c-18 -7 -16 -23 2 -23 8 0 15 7 15 15 0 8 -1 15 -2 14
-2 0 -9 -3 -15 -6z"/>
<path d="M17357 28089 c7 -7 15 -10 18 -7 3 3 -2 9 -12 12 -14 6 -15 5 -6 -5z"/>
<path d="M17390 28079 c0 -5 5 -7 10 -4 6 3 10 8 10 11 0 2 -4 4 -10 4 -5 0
-10 -5 -10 -11z"/>
<path d="M24530 28050 l-25 -25 23 -3 c13 -2 26 -1 29 1 2 3 3 16 1 29 l-3 23
-25 -25z"/>
<path d="M17393 28031 c15 -23 55 -41 41 -20 -3 5 -10 6 -16 3 -8 -5 -9 -1 -4
12 4 10 4 15 0 11 -4 -4 -14 -1 -23 6 -12 10 -12 7 2 -12z"/>
<path d="M17454 27909 c-4 -7 -3 -9 4 -5 5 3 13 0 15 -6 4 -9 6 -10 6 -1 1 17
-16 25 -25 12z"/>
<path d="M24380 27875 c-10 -12 -10 -15 4 -15 9 0 16 7 16 15 0 8 -2 15 -4 15
-2 0 -9 -7 -16 -15z"/>
<path d="M24223 27803 c-18 -7 -16 -23 2 -23 8 0 15 7 15 15 0 8 -1 15 -2 14
-2 0 -9 -3 -15 -6z"/>
<path d="M17567 27759 c7 -7 15 -10 18 -7 3 3 -2 9 -12 12 -14 6 -15 5 -6 -5z"/>
<path d="M17556 27718 c3 -5 10 -6 15 -3 13 9 11 12 -6 12 -8 0 -12 -4 -9 -9z"/>
<path d="M24143 27723 c-18 -7 -16 -23 2 -23 8 0 15 7 15 15 0 8 -1 15 -2 14
-2 0 -9 -3 -15 -6z"/>
<path d="M24050 27650 l-25 -25 23 -3 c13 -2 26 -1 29 1 2 3 3 16 1 29 l-3 23
-25 -25z"/>
<path d="M17645 27611 c-3 -5 -2 -12 3 -15 5 -3 9 1 9 9 0 17 -3 19 -12 6z"/>
<path d="M17700 27536 c0 -2 7 -9 15 -16 9 -7 15 -8 15 -2 0 5 -7 12 -15 16
-8 3 -15 4 -15 2z"/>
<path d="M17694 27483 c16 -20 36 -23 36 -6 0 4 -3 3 -7 0 -3 -4 -16 1 -27 10
-21 18 -21 18 -2 -4z"/>
<path d="M23900 27475 c-10 -12 -10 -15 4 -15 9 0 16 7 16 15 0 8 -2 15 -4 15
-2 0 -9 -7 -16 -15z"/>
<path d="M17737 27423 c3 -7 6 -13 8 -13 2 0 5 6 8 13 3 8 -1 14 -8 14 -7 0
-11 -6 -8 -14z"/>
<path d="M23743 27403 c-18 -7 -16 -23 2 -23 8 0 15 7 15 15 0 8 -1 15 -2 14
-2 0 -9 -3 -15 -6z"/>
<path d="M17755 27371 c3 -3 17 -6 31 -7 13 0 22 2 19 5 -3 3 -17 6 -31 7 -13
0 -22 -2 -19 -5z"/>
<path d="M20310 27370 c-9 -6 -10 -10 -3 -10 6 0 15 5 18 10 8 12 4 12 -15 0z"/>
<path d="M20555 27370 c-3 -5 -1 -10 4 -10 6 0 11 5 11 10 0 6 -2 10 -4 10 -3
0 -8 -4 -11 -10z"/>
<path d="M21467 27359 c7 -7 15 -10 18 -7 3 3 -2 9 -12 12 -14 6 -15 5 -6 -5z"/>
<path d="M20245 27339 c-11 -16 -1 -19 13 -3 7 8 8 14 3 14 -5 0 -13 -5 -16
-11z"/>
<path d="M23663 27323 c-18 -7 -16 -23 2 -23 8 0 15 7 15 15 0 8 -1 15 -2 14
-2 0 -9 -3 -15 -6z"/>
<path d="M20106 27291 c-3 -4 6 -7 19 -7 14 0 22 2 19 5 -8 8 -34 10 -38 2z"/>
<path d="M20063 27275 c0 -8 4 -12 9 -9 5 3 6 10 3 15 -9 13 -12 11 -12 -6z"/>
<path d="M23570 27250 l-25 -25 23 -3 c13 -2 26 -1 29 1 2 3 3 16 1 29 l-3 23
-25 -25z"/>
<path d="M19998 27253 c6 -2 9 -10 6 -15 -4 -7 -2 -8 5 -4 13 9 5 26 -12 25
-9 0 -8 -2 1 -6z"/>
<path d="M19940 27219 c0 -5 5 -7 10 -4 6 3 10 8 10 11 0 2 -4 4 -10 4 -5 0
-10 -5 -10 -11z"/>
<path d="M17864 27204 c1 -8 4 -15 7 -16 2 -2 3 -1 2 1 -2 2 2 9 7 16 7 8 5
12 -4 12 -8 0 -13 -6 -12 -13z"/>
<path d="M19881 27207 c-8 -10 -7 -14 2 -14 8 0 14 6 14 14 0 7 -1 13 -2 13
-2 0 -8 -6 -14 -13z"/>
<path d="M17896 27174 c-6 -14 9 -54 20 -54 2 0 0 9 -6 19 -5 11 -7 27 -4 35
3 9 4 16 1 16 -3 0 -8 -7 -11 -16z"/>
<path d="M19776 27169 c2 -4 13 -7 24 -6 23 2 17 10 -10 12 -10 1 -17 -2 -14
-6z"/>
<path d="M19636 27131 c-4 -5 -2 -12 3 -15 5 -4 12 -2 15 3 4 5 2 12 -3 15 -5
4 -12 2 -15 -3z"/>
<path d="M19709 27133 c-1 -5 -1 -12 0 -17 1 -5 -5 -6 -14 -2 -11 4 -14 2 -9
-6 5 -7 2 -9 -9 -5 -9 3 -17 1 -19 -5 -3 -7 -18 -13 -35 -14 -17 -1 -41 -12
-53 -24 -12 -12 -28 -19 -36 -16 -8 3 -14 2 -14 -3 0 -5 -15 -15 -32 -22 -18
-7 -61 -30 -95 -51 -35 -21 -67 -38 -72 -38 -5 0 -16 -6 -23 -14 -8 -7 -27
-21 -43 -30 -54 -30 -83 -50 -182 -126 -161 -123 -286 -245 -447 -434 -21 -25
-43 -43 -49 -39 -5 3 -7 1 -3 -5 3 -6 1 -22 -5 -36 -11 -23 -8 -30 36 -81 l47
-56 75 113 c247 373 581 674 978 882 17 8 24 15 17 16 -7 0 -10 5 -7 10 3 6 4
10 1 10 -3 0 -7 -3 -7 -7z"/>
<path d="M17980 27121 c0 -6 4 -13 10 -16 6 -3 7 1 4 9 -7 18 -14 21 -14 7z"/>
<path d="M23420 27075 c-10 -12 -10 -15 4 -15 9 0 16 7 16 15 0 8 -2 15 -4 15
-2 0 -9 -7 -16 -15z"/>
<path d="M19475 27051 c-3 -5 -2 -12 3 -15 5 -3 9 1 9 9 0 17 -3 19 -12 6z"/>
<path d="M23263 27003 c-18 -7 -16 -23 2 -23 8 0 15 7 15 15 0 8 -1 15 -2 14
-2 0 -9 -3 -15 -6z"/>
<path d="M19300 26940 c-8 -5 -10 -10 -5 -10 6 0 17 5 25 10 8 5 11 10 5 10
-5 0 -17 -5 -25 -10z"/>
<path d="M54660 26943 c-52 -8 -147 -47 -199 -81 -105 -70 -160 -163 -275
-466 -80 -209 -116 -287 -182 -386 -118 -179 -314 -333 -512 -401 -125 -43
-205 -51 -522 -54 -337 -3 -404 -12 -534 -75 -275 -132 -477 -466 -547 -905
-20 -119 -17 -438 4 -555 68 -374 225 -665 431 -800 160 -104 431 -191 875
-280 176 -35 705 -125 799 -136 141 -16 33 -12 -379 12 l-434 26 -775 -17
c-426 -9 -777 -19 -779 -21 -2 -2 4 -4 15 -5 10 0 336 -19 724 -42 l705 -43
-1075 -19 c-591 -11 -1151 -19 -1245 -19 -149 0 -621 18 -775 29 -30 2 -122 7
-205 10 -82 3 -188 7 -235 10 -110 6 -330 16 -398 18 l-52 2 0 -4740 0 -4740
898 -144 c912 -146 1269 -205 2312 -381 322 -54 599 -98 615 -99 17 0 460 -71
985 -158 l955 -158 265 2 c186 1 548 18 1210 57 520 31 1406 83 1970 116 564
33 1052 61 1085 63 33 2 551 34 1150 70 600 37 1115 69 1145 73 235 27 445
221 495 459 13 61 15 525 15 3593 0 2282 -4 3522 -10 3522 -6 0 -10 8 -11 18
0 10 -3 12 -6 5 -6 -17 -28 -16 -43 2 -7 8 -19 15 -27 15 -9 0 -3 -11 16 -31
20 -20 37 -28 48 -25 16 5 18 0 15 -39 l-4 -45 -54 0 c-47 0 -54 2 -54 20 0
11 5 20 10 20 6 0 10 9 10 20 0 11 -4 20 -10 20 -5 0 -10 -10 -10 -21 0 -20
-4 -21 -42 -16 -23 3 -45 13 -50 21 -5 9 -18 16 -28 16 -11 0 -20 6 -20 14 0
7 -10 21 -22 29 l-23 16 23 0 c12 1 22 6 22 11 0 6 -33 10 -80 10 l-80 0 0 40
c0 22 5 40 10 40 6 0 10 9 10 20 0 15 7 20 29 20 16 0 31 -5 33 -10 2 -6 21
-12 43 -15 22 -2 32 -2 23 1 -10 3 -18 10 -18 15 0 5 -10 9 -23 9 -13 0 -41
16 -62 36 -26 24 -41 31 -44 23 -2 -7 1 -15 8 -17 14 -5 15 -42 1 -42 -5 0
-10 -8 -10 -19 0 -13 -10 -20 -36 -24 -19 -3 -42 -3 -50 0 -16 6 -20 43 -4 43
6 0 10 9 10 20 0 11 7 20 15 20 8 0 15 5 15 10 0 6 7 10 15 10 23 0 18 16 -10
28 -32 15 -46 15 -22 1 19 -11 23 -29 6 -29 -16 0 -39 -26 -39 -44 0 -23 -52
-20 -78 4 -12 11 -30 20 -42 20 -11 0 -20 6 -20 14 0 7 -10 21 -22 29 l-23 16
23 0 c12 1 22 6 22 12 0 7 -18 10 -47 9 -85 -4 -113 -1 -113 14 0 8 -8 17 -17
20 -15 6 -13 10 10 30 15 13 27 31 27 40 0 11 9 16 30 16 17 0 30 -4 30 -10 0
-5 6 -10 13 -10 19 0 67 -24 67 -33 0 -12 57 -67 69 -67 6 0 11 5 11 10 0 7 6
7 19 0 28 -15 33 -13 21 10 -6 10 -27 24 -48 29 -21 6 -48 20 -60 31 -11 11
-26 20 -32 20 -5 0 -10 5 -10 10 0 6 -11 10 -25 10 -14 0 -25 5 -25 10 0 6 -6
10 -13 10 -7 0 -23 11 -35 25 -13 15 -28 22 -37 19 -8 -4 -15 -2 -15 3 0 8
-42 33 -55 33 -3 0 -5 -14 -5 -31 0 -31 1 -31 36 -26 19 3 42 3 50 0 16 -6 20
-43 4 -43 -5 0 -10 -9 -10 -20 0 -18 -7 -20 -80 -20 -77 0 -80 1 -80 23 0 30
-33 57 -70 57 -27 0 -30 3 -30 30 0 17 5 30 10 30 6 0 10 4 10 10 0 5 -33 9
-75 8 -76 -1 -76 0 -109 37 -29 32 -42 38 -85 43 -44 4 -51 7 -51 26 0 29 -34
56 -70 56 -26 0 -30 3 -30 29 0 16 6 31 13 34 6 2 8 8 4 13 -4 5 -11 3 -15 -3
-10 -17 -84 -21 -90 -5 -2 7 -15 12 -28 12 -13 0 -24 5 -24 11 0 6 -13 24 -29
40 -25 24 -37 29 -80 29 -46 0 -51 2 -51 23 0 30 -33 57 -70 57 -26 0 -30 3
-30 29 0 16 6 31 13 34 7 2 8 8 3 13 -5 5 -11 4 -13 -3 -5 -15 -63 -18 -63 -3
0 6 -18 10 -40 10 -27 0 -40 4 -40 14 0 7 -10 21 -22 29 l-23 16 23 0 c12 1
22 6 22 11 0 6 18 10 40 10 22 0 40 5 40 10 0 7 6 7 20 0 14 -8 20 -8 20 0 0
6 -8 14 -17 17 -10 4 -20 9 -23 13 -3 3 -17 13 -32 23 -28 17 -28 17 -28 -8 0
-44 -21 -55 -104 -55 -58 0 -76 3 -76 14 0 8 -8 17 -17 21 -17 6 -17 7 0 19
27 21 21 26 -33 26 -43 0 -50 3 -50 20 0 11 5 20 10 20 6 0 10 9 10 20 0 11
-4 20 -10 20 -5 0 -10 -10 -10 -21 0 -20 -4 -21 -42 -16 -23 3 -45 13 -50 21
-5 9 -18 16 -28 16 -11 0 -20 6 -20 14 0 7 -10 21 -22 29 l-23 16 23 0 c12 1
22 6 22 11 0 6 -33 10 -80 10 -62 0 -80 3 -80 14 0 8 -8 17 -17 20 -15 6 -13
10 10 30 15 13 27 31 27 40 0 18 56 24 62 6 2 -6 20 -13 41 -17 31 -5 37 -3
37 11 0 13 -5 16 -20 11 -12 -4 -28 -1 -36 6 -9 7 -22 14 -30 15 -7 1 -25 14
-39 28 -14 14 -34 26 -44 26 -10 0 -24 7 -31 15 -7 8 -19 15 -26 15 -8 0 -14
10 -14 22 0 47 -15 2 -26 -80 l-13 -87 2 92 c2 98 -3 112 -13 35 -4 -26 -7
109 -8 300 l-3 347 28 4 28 4 -27 2 c-27 1 -28 3 -28 60 l0 60 58 31 c88 47
219 149 303 237 295 309 343 645 120 846 -26 23 -116 89 -200 146 -280 191
-387 335 -428 571 -19 109 -7 214 44 378 20 64 47 153 60 197 34 108 41 239
18 325 -75 289 -379 517 -815 612 -91 19 -134 22 -325 23 -206 0 -227 -2 -325
-27 -216 -55 -378 -137 -570 -292 -166 -134 -456 -440 -568 -600 l-42 -59 -16
39 c-219 526 -531 982 -914 1332 -358 328 -685 524 -960 576 -76 15 -181 19
-240 9z m3410 -4273 c206 -16 565 -74 555 -90 -2 -4 -114 -10 -247 -13 -198
-6 -335 -2 -735 20 -271 15 -491 28 -490 30 1 1 70 11 152 22 280 39 526 49
765 31z m-2430 -105 c536 -31 986 -59 1000 -61 21 -5 16 -9 -32 -28 -146 -60
-262 -194 -303 -353 -18 -67 -20 -268 -5 -448 64 -760 326 -1395 792 -1917
l69 -76 -2 -1294 c0 -711 -5 -1284 -9 -1273 l-9 20 -1 -20 c-1 -19 -2 -18 -10
3 -8 18 -17 22 -50 22 -22 0 -40 5 -40 10 0 18 -40 50 -62 50 -19 0 -20 2 -8
10 12 8 9 10 -11 10 -15 0 -32 7 -39 15 -7 8 -18 15 -25 15 -7 0 -15 7 -19 15
-3 9 -19 15 -41 15 -19 0 -35 5 -35 11 0 18 -60 71 -74 66 -8 -3 -20 1 -26 9
-7 8 -23 14 -36 14 -15 0 -24 6 -24 15 0 8 -9 15 -20 15 -11 0 -20 5 -20 10 0
6 -9 10 -20 10 -22 0 -27 15 -7 23 6 3 -11 6 -40 6 -49 1 -52 3 -55 29 -3 23
-8 27 -40 30 -21 2 -38 8 -38 13 0 19 -60 71 -74 66 -8 -3 -20 1 -26 9 -7 8
-23 14 -35 14 -14 0 -25 7 -28 20 -3 13 -10 18 -21 14 -9 -3 -16 -1 -16 5 0 6
-10 12 -22 12 l-23 2 23 4 c40 8 12 23 -43 23 -51 0 -54 1 -57 28 -3 23 -8 27
-40 30 -21 2 -38 7 -38 13 0 5 -6 9 -13 9 -7 0 -17 10 -22 23 -6 12 -20 23
-32 25 -12 2 -27 10 -33 18 -7 8 -23 14 -35 14 -14 0 -25 7 -28 20 -4 15 -14
20 -41 20 -20 0 -36 5 -36 10 0 6 9 10 21 10 11 0 17 5 14 10 -4 6 -16 10 -28
9 -67 -6 -86 0 -89 29 -3 23 -8 28 -37 30 -19 2 -40 10 -47 17 -16 16 -19 45
-4 45 6 0 10 9 10 20 0 11 -4 20 -10 20 -5 0 -10 -9 -10 -20 0 -16 -7 -20 -30
-20 -16 0 -30 5 -30 11 0 6 -6 9 -14 6 -8 -3 -20 1 -26 9 -7 8 -19 14 -26 14
-8 0 -14 7 -14 15 0 8 -9 15 -19 15 -10 0 -21 7 -25 15 -3 8 -12 15 -21 15 -8
0 -15 5 -15 10 0 6 -18 10 -40 10 -22 0 -40 5 -40 10 0 17 -39 50 -60 50 -11
0 -20 4 -20 9 0 5 -8 11 -17 15 -26 8 -57 29 -66 44 -5 7 -12 10 -16 7 -5 -2
-14 2 -21 10 -7 8 -19 15 -26 15 -11 0 -14 22 -16 93 l-2 92 -3 -92 c-3 -73
-7 -93 -18 -93 -13 0 -15 235 -15 1868 0 1527 3 1876 14 1917 42 158 164 288
314 336 l57 18 -245 -4 c-135 -2 -301 0 -370 5 -69 4 -197 11 -285 14 -88 4
-185 9 -215 11 -30 2 -122 7 -205 10 -82 3 -226 10 -320 15 -93 5 -237 12
-320 16 -416 19 -420 18 275 45 366 14 733 27 815 28 83 1 585 -23 1125 -54z
m3964 -781 c17 -7 22 -44 6 -44 -5 0 -10 -9 -10 -20 0 -17 -7 -20 -45 -20
l-45 0 0 39 c0 37 2 40 33 44 17 2 35 5 39 5 3 1 13 -1 22 -4z m971 -954 c3
-5 1 -10 -4 -10 -6 0 -11 5 -11 10 0 6 2 10 4 10 3 0 8 -4 11 -10z m400 -240
c3 -5 1 -10 -4 -10 -6 0 -11 5 -11 10 0 6 2 10 4 10 3 0 8 -4 11 -10z m1185
-445 c0 -8 -4 -15 -9 -15 -13 0 -22 16 -14 24 11 11 23 6 23 -9z m7 -167 c-2
-24 -4 -5 -4 42 0 47 2 66 4 43 2 -24 2 -62 0 -85z m-7160 -1845 c-3 -10 -5
-2 -5 17 0 19 2 27 5 18 2 -10 2 -26 0 -35z m148 -83 c3 -5 2 -10 -4 -10 -5 0
-13 5 -16 10 -3 6 -2 10 4 10 5 0 13 -4 16 -10z m80 -41 c11 -17 0 -20 -21 -4
-17 13 -17 14 -2 15 9 0 20 -5 23 -11z m125 -84 c0 -17 -2 -18 -24 -9 -23 9
-20 24 4 24 11 0 20 -7 20 -15z m35 -23 c-3 -3 -11 0 -18 7 -9 10 -8 11 6 5
10 -3 15 -9 12 -12z m465 -107 c10 -12 10 -15 -4 -15 -9 0 -16 7 -16 15 0 8 2
15 4 15 2 0 9 -7 16 -15z m-225 -25 c8 -13 -5 -13 -25 0 -13 8 -13 10 2 10 9
0 20 -4 23 -10z m82 -47 c3 -7 -3 -9 -16 -6 -12 3 -21 10 -21 15 0 13 32 6 37
-9z m78 -61 c-3 -3 -11 0 -18 7 -9 10 -8 11 6 5 10 -3 15 -9 12 -12z m165 -87
c16 -19 1 -19 -24 0 -16 12 -17 15 -4 15 8 0 21 -7 28 -15z m300 -20 c10 -12
10 -15 -4 -15 -9 0 -16 7 -16 15 0 8 2 15 4 15 2 0 9 -7 16 -15z m-220 -25 c0
-5 -4 -10 -9 -10 -6 0 -13 5 -16 10 -3 6 1 10 9 10 9 0 16 -4 16 -10z m77 -47
c3 -7 -3 -9 -16 -6 -12 3 -21 10 -21 15 0 13 32 6 37 -9z m244 -144 c18 -18
28 -30 23 -28 -46 22 -64 34 -64 46 0 19 6 17 41 -18z m299 -24 c10 -12 10
-15 -4 -15 -9 0 -16 7 -16 15 0 8 2 15 4 15 2 0 9 -7 16 -15z m-220 -25 c0 -5
-4 -10 -10 -10 -5 0 -10 5 -10 10 0 6 5 10 10 10 6 0 10 -4 10 -10z m77 -47
c3 -7 -3 -9 -16 -6 -12 3 -21 10 -21 15 0 13 32 6 37 -9z m203 -112 c0 -5 9
-11 20 -14 11 -3 20 -11 20 -17 0 -9 -8 -7 -25 4 -13 9 -31 16 -40 16 -8 0
-15 5 -15 10 0 6 9 10 20 10 11 0 20 -4 20 -9z m120 -81 c0 -5 -4 -10 -10 -10
-5 0 -10 5 -10 10 0 6 5 10 10 10 6 0 10 -4 10 -10z m75 -40 c3 -5 2 -10 -4
-10 -5 0 -13 5 -16 10 -3 6 -2 10 4 10 5 0 13 -4 16 -10z m85 -54 c0 -2 -9 -2
-20 1 -11 3 -20 9 -20 15 0 5 9 4 20 -2 11 -6 20 -12 20 -14z m120 -72 c0 -9
5 -12 12 -8 7 4 8 3 4 -4 -5 -8 -13 -8 -31 0 -30 14 -32 28 -5 28 11 0 20 -7
20 -16z"/>
<path d="M55280 18520 c0 -5 5 -10 10 -10 6 0 10 5 10 10 0 6 -4 10 -10 10 -5
0 -10 -4 -10 -10z"/>
<path d="M55075 18510 c3 -5 15 -10 26 -10 10 0 19 5 19 10 0 6 -12 10 -26 10
-14 0 -23 -4 -19 -10z"/>
<path d="M55160 18445 c7 -8 19 -15 26 -15 8 0 14 7 14 15 0 10 -10 15 -26 15
-22 0 -25 -2 -14 -15z"/>
<path d="M55280 18350 c0 -5 18 -10 40 -10 22 0 40 5 40 10 0 6 -18 10 -40 10
-22 0 -40 -4 -40 -10z"/>
<path d="M55475 18270 c3 -5 15 -10 26 -10 10 0 19 5 19 10 0 6 -12 10 -26 10
-14 0 -23 -4 -19 -10z"/>
<path d="M55560 18200 c6 -11 17 -20 25 -20 8 0 15 9 15 20 0 15 -7 20 -25 20
-23 0 -24 -2 -15 -20z"/>
<path d="M55875 18030 c3 -5 15 -10 26 -10 10 0 19 5 19 10 0 6 -12 10 -26 10
-14 0 -23 -4 -19 -10z"/>
<path d="M56050 18030 c0 -5 7 -10 15 -10 8 0 15 5 15 10 0 6 -7 10 -15 10 -8
0 -15 -4 -15 -10z"/>
<path d="M55931 17964 c-7 -8 -10 -18 -6 -22 4 -4 10 -1 12 6 3 6 18 12 34 12
16 0 29 5 29 10 0 16 -53 11 -69 -6z"/>
<path d="M56275 17790 c3 -5 15 -10 26 -10 10 0 19 5 19 10 0 6 -12 10 -26 10
-14 0 -23 -4 -19 -10z"/>
<path d="M56378 17733 c7 -3 16 -2 19 1 4 3 -2 6 -13 5 -11 0 -14 -3 -6 -6z"/>
<path d="M56728 17623 c7 -3 16 -2 19 1 4 3 -2 6 -13 5 -11 0 -14 -3 -6 -6z"/>
<path d="M56670 17550 c0 -5 11 -10 25 -10 14 0 25 5 25 10 0 6 -11 10 -25 10
-14 0 -25 -4 -25 -10z"/>
<path d="M56778 17493 c7 -3 16 -2 19 1 4 3 -2 6 -13 5 -11 0 -14 -3 -6 -6z"/>
<path d="M56920 17405 c7 -8 19 -15 26 -15 8 0 14 7 14 15 0 10 -10 15 -26 15
-22 0 -25 -2 -14 -15z"/>
<path d="M57040 17310 c0 -5 18 -10 40 -10 22 0 40 5 40 10 0 6 -18 10 -40 10
-22 0 -40 -4 -40 -10z"/>
<path d="M57143 17180 c0 -25 2 -35 4 -22 2 12 2 32 0 45 -2 12 -4 2 -4 -23z"/>
<path d="M23183 26923 c-18 -7 -16 -23 2 -23 8 0 15 7 15 15 0 8 -1 15 -2 14
-2 0 -9 -3 -15 -6z"/>
<path d="M18136 26887 c3 -10 9 -15 12 -12 3 3 0 11 -7 18 -10 9 -11 8 -5 -6z"/>
<path d="M23103 26843 c-18 -7 -16 -23 2 -23 8 0 15 7 15 15 0 8 -1 15 -2 14
-2 0 -9 -3 -15 -6z"/>
<path d="M18259 26656 c-8 -9 -3 -33 7 -33 8 0 12 3 9 5 -3 3 0 10 5 17 7 8 5
12 -5 12 -8 0 -15 -1 -16 -1z"/>
<path d="M22930 26642 c0 -16 53 -71 63 -65 5 3 7 1 3 -5 -6 -11 63 -74 74
-67 4 2 6 -6 6 -18 -1 -13 5 -22 14 -22 8 0 15 -5 15 -12 0 -6 3 -14 7 -18 12
-12 2 23 -11 39 -11 14 -11 16 3 16 10 0 14 5 11 10 -4 6 -11 8 -16 5 -5 -3
-6 1 -3 9 3 9 9 14 13 12 3 -2 7 9 8 25 2 27 -1 29 -27 27 -16 -1 -26 -6 -24
-10 3 -4 1 -8 -4 -8 -11 0 -30 21 -30 33 0 5 -3 11 -6 15 -3 3 -6 1 -6 -4 0
-5 -12 -10 -26 -10 -19 -2 -24 2 -20 13 4 9 -1 21 -11 29 -21 15 -33 18 -33 6z
m31 -19 c13 -16 12 -17 -3 -4 -17 13 -22 21 -14 21 2 0 10 -8 17 -17z m84 -63
c3 -5 -1 -10 -10 -10 -9 0 -13 5 -10 10 3 6 8 10 10 10 2 0 7 -4 10 -10z m59
-5 c-4 -8 -11 -12 -16 -9 -6 4 -5 10 3 15 19 12 19 11 13 -6z m-24 -20 c10
-12 10 -15 -4 -15 -9 0 -16 7 -16 15 0 8 2 15 4 15 2 0 9 -7 16 -15z"/>
<path d="M22990 26619 c-11 -19 -10 -20 10 -9 11 6 18 15 15 21 -9 13 -13 11
-25 -12z"/>
<path d="M18335 26520 c3 -5 8 -10 11 -10 2 0 4 5 4 10 0 6 -5 10 -11 10 -5 0
-7 -4 -4 -10z"/>
<path d="M18360 26486 c0 -2 8 -10 18 -17 15 -13 16 -12 3 4 -13 16 -21 21
-21 13z"/>
<path d="M18451 26406 c-9 -11 -9 -16 1 -22 7 -4 10 -4 6 1 -4 4 -3 14 3 22 6
7 9 13 6 13 -2 0 -10 -6 -16 -14z"/>
<path d="M23136 26411 c-3 -5 1 -11 9 -15 9 -3 15 0 15 9 0 16 -16 20 -24 6z"/>
<path d="M23174 26394 c5 -17 3 -23 -4 -19 -5 3 -10 2 -10 -4 0 -5 3 -11 8
-13 10 -4 91 -114 99 -134 4 -12 8 -13 14 -3 6 10 11 10 23 0 9 -7 22 -11 30
-8 15 6 16 -17 1 -30 -4 -4 -6 -3 -2 2 3 6 -6 16 -20 22 -20 10 -22 9 -14 -1
6 -7 8 -16 4 -19 -3 -4 4 -19 18 -34 13 -14 17 -23 9 -19 -13 7 -13 6 0 -6 8
-7 16 -20 18 -28 5 -23 24 -37 29 -22 3 6 9 10 14 6 5 -3 9 0 9 5 0 6 -9 11
-20 11 -18 0 -24 12 -23 48 1 6 -3 12 -9 12 -5 0 -6 6 -1 13 4 6 8 29 8 50 1
36 0 37 -35 37 -72 -1 -73 0 -59 16 20 24 18 53 -3 60 -11 3 -22 3 -25 0 -11
-11 -41 14 -39 31 2 10 -2 21 -8 25 -8 5 -7 8 2 8 6 0 12 5 12 10 0 6 -7 10
-16 10 -12 0 -15 -6 -10 -26z m84 -111 c-13 -17 -18 -13 -24 21 -4 25 -4 26
15 9 15 -13 18 -20 9 -30z m66 -49 c3 -8 2 -12 -4 -9 -6 3 -10 10 -10 16 0 14
7 11 14 -7z"/>
<path d="M18540 26325 c-7 -8 -15 -13 -19 -11 -4 3 -7 -4 -7 -14 0 -11 2 -17
5 -15 2 3 9 0 16 -5 8 -6 12 -6 13 3 0 6 3 22 6 35 6 26 3 27 -14 7z m3 -20
c-3 -9 -8 -14 -10 -11 -3 3 -2 9 2 15 9 16 15 13 8 -4z"/>
<path d="M23406 26084 c-4 -9 -1 -24 6 -33 9 -12 7 -11 -9 2 -11 10 -23 15
-26 10 -8 -12 20 -46 32 -39 5 4 13 1 17 -5 4 -7 3 -9 -4 -5 -6 3 -13 2 -17
-4 -3 -5 -1 -10 5 -10 6 0 8 -4 5 -10 -3 -5 -1 -10 5 -10 6 0 9 -4 5 -9 -3 -5
-1 -12 5 -16 6 -4 9 15 7 54 -1 36 -6 57 -12 53 -5 -3 -4 1 2 10 7 8 10 18 6
21 -11 11 -21 8 -27 -9z"/>
<path d="M20895 26036 c-81 -19 -166 -52 -210 -81 -20 -14 -40 -25 -44 -25 -5
0 -15 -8 -22 -17 -12 -14 -12 -16 0 -8 10 5 12 4 7 -4 -4 -6 -13 -10 -21 -9
-17 4 -117 -81 -109 -93 3 -6 -3 -13 -14 -16 -19 -5 -28 -43 -10 -43 4 0 8 -5
8 -11 0 -8 -5 -8 -15 1 -8 7 -12 17 -8 24 3 6 -2 3 -12 -6 -14 -13 -16 -20 -7
-31 9 -11 8 -14 -3 -14 -8 0 -12 4 -9 9 14 23 -7 4 -32 -29 -15 -20 -21 -33
-13 -28 8 5 1 -4 -15 -19 -31 -30 -31 -29 7 -49 25 -13 26 -15 8 -20 -12 -3
-19 0 -18 6 1 6 -7 13 -17 15 -14 3 -17 0 -13 -13 4 -9 3 -13 -3 -10 -16 10
-29 -28 -17 -50 9 -17 9 -18 -5 -7 -13 10 -17 10 -22 -4 -3 -9 -3 -21 1 -26 3
-6 1 -8 -4 -5 -6 4 -18 -14 -28 -41 -10 -26 -22 -52 -27 -58 -4 -6 -5 -20 -1
-29 4 -12 3 -16 -5 -11 -17 10 -26 -33 -10 -51 11 -14 11 -16 -1 -9 -8 5 -17
3 -22 -5 -12 -19 -11 -42 1 -34 6 3 10 -1 10 -10 0 -9 4 -14 9 -11 5 3 11 -1
15 -9 3 -8 0 -17 -6 -21 -6 -4 -8 -3 -5 2 3 6 -2 15 -12 21 -16 10 -20 7 -31
-15 -21 -46 -29 -81 -19 -87 13 -8 11 -45 -2 -45 -5 0 -7 5 -4 10 3 6 1 10 -4
10 -14 0 -14 -16 -1 -40 8 -16 8 -18 -5 -14 -10 4 -16 0 -17 -12 0 -11 -2 -24
-2 -31 -1 -6 -4 -15 -8 -18 -3 -4 -4 -18 -2 -31 2 -13 1 -24 -4 -24 -4 0 -9
-10 -9 -22 -1 -13 -5 -34 -8 -48 -4 -19 -3 -21 5 -10 5 8 10 10 10 5 0 -6 -6
-17 -12 -23 -9 -9 -9 -15 -2 -20 174 -117 304 -202 309 -202 3 0 5 8 5 18 0
19 52 72 70 72 5 0 10 5 10 10 0 6 7 10 16 10 9 0 18 9 21 20 3 11 14 20 24
20 12 0 19 7 19 19 0 10 9 21 20 24 11 3 20 12 20 21 0 9 8 16 20 16 11 0 20
5 20 10 0 6 7 10 15 10 8 0 19 9 25 20 6 11 17 20 25 20 8 0 15 5 15 10 0 6 5
10 11 10 14 0 69 55 69 69 0 6 9 11 20 11 11 0 20 7 20 15 0 9 11 19 23 24 13
5 35 23 49 40 14 16 38 33 53 37 15 4 30 15 32 25 3 11 14 19 24 19 12 0 19 7
19 20 0 12 7 20 16 20 9 0 18 9 21 20 3 11 14 20 24 20 11 0 19 5 19 10 0 6 7
10 15 10 8 0 19 9 25 20 6 11 17 20 25 20 8 0 15 5 15 10 0 6 5 10 11 10 6 0
24 13 40 29 16 16 29 34 29 40 0 6 8 11 19 11 10 0 21 9 24 20 3 11 12 20 21
20 9 0 16 8 16 20 0 13 7 20 20 20 11 0 23 6 26 14 3 8 19 18 36 21 18 4 32
15 35 26 7 24 43 25 43 2 0 -16 2 -16 11 -3 9 12 10 11 4 -5 -17 -47 -1 -66
34 -41 11 8 13 8 7 -1 -4 -8 -1 -13 8 -13 14 0 19 -17 15 -46 0 -4 5 -11 13
-15 9 -6 9 -9 1 -9 -10 0 -11 -24 -4 -79 1 -2 9 4 20 13 17 16 19 16 24 -6 4
-13 2 -24 -3 -26 -6 -2 -10 -10 -10 -19 0 -10 6 -12 20 -8 12 4 20 2 20 -5 0
-6 -3 -9 -7 -7 -5 3 -17 -4 -27 -14 -19 -19 -19 -19 3 -19 14 0 20 4 15 11 -4
7 -1 10 7 7 8 -3 13 -11 11 -17 -1 -7 2 -20 8 -30 5 -11 6 -30 1 -48 -6 -20
-4 -40 5 -62 16 -38 18 -63 4 -41 -6 9 -10 10 -10 3 0 -6 -3 -19 -7 -28 -5
-15 -3 -16 18 -5 13 7 27 18 32 24 4 6 6 0 5 -14 -2 -14 2 -24 8 -23 6 1 15
-17 18 -40 9 -57 9 -59 0 -81 -5 -14 -4 -17 4 -12 9 5 10 1 4 -16 -6 -17 -8
-259 -3 -286 1 -1 10 2 20 8 18 9 19 7 17 -22 -2 -18 -1 -25 1 -15 2 9 9 17
14 17 14 0 11 -27 -4 -42 -11 -9 -11 -19 -2 -45 6 -18 15 -36 18 -40 4 -4 7
-119 7 -256 -1 -137 1 -251 4 -254 3 -3 53 -20 113 -38 98 -30 109 -31 117
-16 15 24 12 655 -2 796 -58 553 -193 922 -418 1149 -107 107 -223 176 -364
216 -97 28 -307 36 -395 16z m-108 -92 c-3 -3 -12 -4 -19 -1 -8 3 -5 6 6 6 11
1 17 -2 13 -5z m258 -23 c8 -14 -9 -21 -35 -14 -22 6 -23 7 -4 14 26 10 32 10
39 0z m-450 -51 c-3 -5 -12 -10 -18 -10 -7 0 -6 4 3 10 19 12 23 12 15 0z
m540 0 c3 -6 -4 -10 -17 -10 -18 0 -20 2 -8 10 19 12 18 12 25 0z m110 -40 c3
-5 -1 -10 -9 -10 -9 0 -16 5 -16 10 0 6 4 10 9 10 6 0 13 -4 16 -10z m-713 -7
c-6 -2 -10 -9 -6 -14 3 -5 0 -9 -5 -9 -12 0 -14 13 -4 23 3 4 11 7 17 6 6 0 5
-3 -2 -6z m813 -73 c3 -5 2 -10 -4 -10 -5 0 -13 5 -16 10 -3 6 -2 10 4 10 5 0
13 -4 16 -10z m51 -34 c12 -13 12 -15 -5 -13 -11 0 -18 4 -15 8 2 4 -2 10 -8
12 -10 4 -10 6 0 6 7 1 20 -5 28 -13z m-81 -6 c3 -5 -1 -10 -10 -10 -9 0 -13
5 -10 10 3 6 8 10 10 10 2 0 7 -4 10 -10z m157 -78 c8 -8 5 -9 -11 -5 -12 3
-24 9 -26 13 -8 12 23 6 37 -8z m-77 -2 c3 -5 1 -10 -4 -10 -6 0 -11 5 -11 10
0 6 2 10 4 10 3 0 8 -4 11 -10z m-1004 -33 c-10 -9 -11 -8 -5 6 3 10 9 15 12
12 3 -3 0 -11 -7 -18z m1124 -27 c8 0 15 -5 15 -11 0 -16 -43 13 -48 32 -2 8
2 6 8 -3 6 -10 18 -18 25 -18z m-1115 -20 c0 -5 -5 -10 -11 -10 -5 0 -7 5 -4
10 3 6 8 10 11 10 2 0 4 -4 4 -10z m1163 -65 c-7 -21 -12 -19 -10 4 0 11 5 18
9 15 4 -3 5 -11 1 -19z m-1263 -62 c0 -7 -4 -13 -10 -13 -5 0 -10 12 -10 28 0
21 2 24 10 12 5 -8 10 -21 10 -27z m14 -31 c3 -5 -1 -9 -9 -9 -8 0 -12 4 -9 9
3 4 7 8 9 8 2 0 6 -4 9 -8z m1310 -28 c3 -8 2 -12 -4 -9 -6 3 -10 10 -10 16 0
14 7 11 14 -7z m106 -298 c0 -5 -7 -3 -15 4 -8 7 -15 22 -15 34 1 20 2 20 15
-4 8 -14 14 -29 15 -34z m-1583 -174 c1 -36 1 -36 -7 -8 -8 24 -6 46 3 46 1 0
3 -17 4 -38z m-27 -14 c0 -18 -2 -20 -9 -8 -6 8 -7 18 -5 22 9 14 14 9 14 -14z
m17 -50 c-3 -8 -6 -5 -6 6 -1 11 2 17 5 13 3 -3 4 -12 1 -19z m1653 2 c0 -5
-5 -10 -11 -10 -5 0 -7 5 -4 10 3 6 8 10 11 10 2 0 4 -4 4 -10z m-1630 -26 c0
-8 -19 -13 -24 -6 -3 5 1 9 9 9 8 0 15 -2 15 -3z m1638 -91 c-3 -37 -1 -54 9
-57 7 -3 13 -20 13 -38 -1 -29 -2 -31 -14 -16 -7 10 -15 16 -18 13 -2 -3 -4
40 -4 95 0 66 3 92 9 77 5 -12 7 -45 5 -74z"/>
<path d="M23440 25934 c0 -3 9 -17 20 -31 11 -14 17 -29 14 -34 -3 -5 0 -9 5
-9 6 0 10 -3 10 -7 -3 -21 2 -33 16 -33 8 0 15 5 15 11 0 5 -6 7 -12 3 -8 -5
-7 0 2 11 13 17 13 18 0 10 -12 -7 -13 -6 -3 6 7 8 11 28 10 44 -2 27 -6 30
-40 32 -20 1 -37 0 -37 -3z m51 -27 c-1 -12 -15 -9 -19 4 -3 6 1 10 8 8 6 -3
11 -8 11 -12z"/>
<path d="M23500 25799 c0 -5 5 -7 10 -4 6 3 10 8 10 11 0 2 -4 4 -10 4 -5 0
-10 -5 -10 -11z"/>
<path d="M23520 25770 c0 -6 8 -25 17 -43 9 -18 16 -35 15 -39 -1 -5 3 -8 9
-8 5 0 8 -4 4 -9 -3 -5 -1 -12 5 -16 6 -4 8 -10 5 -15 -3 -4 2 -23 10 -41 l16
-34 -5 40 c-2 22 -7 49 -12 59 -4 11 -4 17 2 14 11 -7 10 40 -1 65 -6 15 -10
16 -16 5 -7 -10 -9 -9 -9 4 0 9 8 19 18 21 9 3 0 5 -20 6 -21 0 -38 -4 -38 -9z
m27 -15 c0 -8 -4 -12 -9 -9 -5 3 -6 10 -3 15 9 13 12 11 12 -6z"/>
<path d="M21343 25403 c-18 -7 -16 -23 2 -23 8 0 15 7 15 15 0 8 -1 15 -2 14
-2 0 -9 -3 -15 -6z"/>
<path d="M21263 25323 c-18 -7 -16 -23 2 -23 8 0 15 7 15 15 0 8 -1 15 -2 14
-2 0 -9 -3 -15 -6z"/>
<path d="M21621 25301 c-7 -5 -9 -11 -5 -14 5 -3 15 1 22 9 14 16 5 18 -17 5z"/>
<path d="M21183 25243 c-18 -7 -16 -23 2 -23 8 0 15 7 15 15 0 8 -1 15 -2 14
-2 0 -9 -3 -15 -6z"/>
<path d="M21090 25170 l-25 -25 23 -3 c13 -2 26 -1 29 1 2 3 3 16 1 29 l-3 23
-25 -25z"/>
<path d="M20940 24995 c-10 -12 -10 -15 4 -15 9 0 16 7 16 15 0 8 -2 15 -4 15
-2 0 -9 -7 -16 -15z"/>
<path d="M20783 24923 c-18 -7 -16 -23 2 -23 8 0 15 7 15 15 0 8 -1 15 -2 14
-2 0 -9 -3 -15 -6z"/>
<path d="M20703 24843 c-18 -7 -16 -23 2 -23 8 0 15 7 15 15 0 8 -1 15 -2 14
-2 0 -9 -3 -15 -6z"/>
<path d="M20610 24770 l-25 -25 23 -3 c13 -2 26 -1 29 1 2 3 3 16 1 29 l-3 23
-25 -25z"/>
<path d="M20480 24670 c0 -5 18 -10 40 -10 22 0 40 5 40 10 0 6 -18 10 -40 10
-22 0 -40 -4 -40 -10z"/>
<path d="M20456 24591 c-10 -11 -15 -25 -11 -30 8 -14 25 -14 25 0 0 5 -4 7
-10 4 -5 -3 -10 -1 -10 5 0 8 10 10 28 6 15 -4 22 -3 16 1 -6 4 -13 14 -15 21
-3 10 -9 8 -23 -7z"/>
<path d="M20508 24564 c-16 -8 -28 -19 -28 -25 0 -6 6 -6 19 0 10 6 21 7 25 4
3 -3 6 1 6 10 0 10 5 17 11 17 5 0 7 -5 3 -12 -4 -7 -3 -8 5 -4 11 7 6 26 -7
26 -4 -1 -19 -8 -34 -16z"/>
<path d="M20504 24531 c-4 -4 9 -14 67 -49 35 -21 37 -21 50 -5 13 16 12 17
-3 4 -12 -9 -18 -10 -18 -2 0 6 -3 10 -7 9 -13 -4 -53 22 -53 33 0 6 5 7 10 4
6 -3 10 -2 10 3 0 9 -47 12 -56 3z"/>
<path d="M20644 24469 c1 -34 22 -52 47 -39 9 5 19 7 21 4 3 -2 5 5 4 16 0 11
-5 19 -11 18 -5 -2 -9 -8 -9 -15 2 -19 -23 -23 -38 -6 -11 15 -11 16 5 10 11
-4 16 -3 12 3 -3 6 -2 10 3 10 6 0 13 8 16 17 6 16 6 16 -12 0 -20 -18 -37
-23 -27 -8 3 5 2 12 -3 15 -5 3 -8 -9 -8 -25z"/>
<path d="M21760 24488 c0 -7 5 -20 11 -28 9 -12 10 -12 5 4 -4 11 -1 23 6 28
10 6 8 8 -4 8 -10 0 -18 -6 -18 -12z"/>
<path d="M21792 24445 c0 -16 2 -22 5 -12 2 9 2 23 0 30 -3 6 -5 -1 -5 -18z"/>
<path d="M20760 24400 c-13 -11 -21 -20 -18 -20 9 0 68 31 68 36 0 11 -29 2
-50 -16z"/>
<path d="M20840 24405 c-10 -12 -9 -15 4 -15 10 0 15 4 11 9 -3 5 3 12 12 14
15 4 15 5 2 6 -9 0 -22 -6 -29 -14z"/>
<path d="M20800 24390 c0 -5 -3 -9 -7 -7 -5 1 -9 -1 -10 -5 -2 -5 -1 -7 1 -5
2 1 13 -7 25 -17 12 -11 21 -16 21 -11 0 4 -8 14 -17 22 -16 13 -16 13 7 7 22
-6 23 -5 8 10 -19 18 -28 20 -28 6z"/>
<path d="M20871 24367 c0 -16 -5 -26 -10 -22 -5 3 -13 0 -17 -6 -4 -8 -3 -9 4
-5 7 4 12 1 12 -6 0 -8 5 -6 11 5 6 10 8 28 6 40 -4 18 -5 17 -6 -6z"/>
<path d="M20886 24325 c-3 -9 -2 -13 4 -10 6 3 10 1 10 -5 0 -6 4 -9 9 -6 5 4
12 0 14 -6 3 -8 6 -8 6 -2 1 6 -7 19 -18 28 -17 15 -19 15 -25 1z"/>
<path d="M21010 24336 c0 -2 7 -7 16 -10 8 -3 12 -2 9 4 -6 10 -25 14 -25 6z"/>
<path d="M20949 24328 c-6 -21 -5 -37 2 -32 5 3 7 9 4 14 -3 5 5 11 17 13 l23
4 -22 2 c-13 0 -23 0 -24 -1z"/>
<path d="M20997 24307 c-3 -8 3 -13 15 -14 10 -1 18 3 16 9 -6 18 -25 21 -31
5z"/>
<path d="M20960 24286 c0 -2 7 -9 15 -16 9 -7 15 -8 15 -2 0 5 -7 12 -15 16
-8 3 -15 4 -15 2z"/>
<path d="M21025 24250 c-3 -5 -1 -10 4 -10 6 0 11 5 11 10 0 6 -2 10 -4 10 -3
0 -8 -4 -11 -10z"/>
<path d="M21051 24245 c3 -11 11 -20 19 -21 36 -2 41 -5 34 -16 -4 -7 -3 -9 1
-5 16 14 14 36 -3 30 -14 -4 -15 -3 -3 5 10 7 21 7 35 0 30 -16 34 -21 9 -14
-16 5 -21 3 -19 -10 1 -9 10 -20 19 -26 13 -7 15 -5 11 7 -5 11 0 15 17 15 19
0 21 -2 9 -10 -13 -9 -13 -10 0 -10 11 0 12 -2 2 -8 -17 -11 52 -44 74 -35 12
4 15 3 10 -5 -14 -23 2 -12 17 12 15 23 15 24 -9 24 -13 0 -27 -4 -30 -9 -3
-5 -10 -9 -15 -9 -6 0 -7 5 -3 12 5 8 2 9 -9 5 -16 -6 -22 4 -18 27 1 4 -3 14
-9 21 -8 10 -7 14 2 18 7 2 10 7 6 11 -3 4 -16 3 -27 -4 -15 -8 -27 -8 -42 0
-15 9 -24 8 -35 -1 -11 -9 -18 -8 -30 2 -14 12 -16 11 -13 -6z m219 -79 c0 -2
-7 -7 -16 -10 -8 -3 -12 -2 -9 4 6 10 25 14 25 6z"/>
<path d="M21325 24170 c3 -4 -2 -11 -11 -14 -8 -3 -12 -10 -9 -16 3 -5 -2 -10
-12 -10 -15 0 -16 -2 -3 -10 20 -13 33 -12 24 2 -4 7 -3 8 5 4 6 -4 18 0 27 9
15 15 14 16 -12 10 l-29 -5 29 13 c27 13 27 14 7 20 -11 3 -19 2 -16 -3z"/>
<path d="M21351 24104 c0 -11 3 -14 6 -6 3 7 2 16 -1 19 -3 4 -6 -2 -5 -13z"/>
<path d="M21496 24092 c-3 -6 -1 -12 6 -14 7 -3 2 -7 -10 -10 -14 -4 -20 -2
-16 4 4 6 -1 8 -14 4 -12 -4 -30 -2 -42 4 -13 7 -20 7 -20 1 0 -6 12 -14 28
-17 15 -4 41 -13 57 -22 21 -10 26 -10 18 -1 -10 10 -9 15 2 23 9 7 11 16 6
25 -5 8 -11 9 -15 3z"/>
<path d="M21551 24016 c16 -14 154 -55 157 -47 2 6 8 11 14 11 6 0 7 -7 4 -16
-6 -14 -4 -15 9 -4 22 18 2 29 -44 24 -35 -3 -35 -3 -6 5 19 6 23 9 11 10 -11
0 -17 4 -13 7 3 4 20 1 38 -5 27 -9 30 -9 19 4 -16 19 -66 19 -74 0 -3 -8 -10
-15 -15 -15 -6 0 -8 7 -5 15 7 16 -11 21 -21 5 -4 -6 -15 -6 -31 0 -25 10 -51
13 -43 6z"/>
<path d="M59760 21689 c0 -14 55 -69 69 -69 6 0 11 5 11 10 0 7 6 7 19 0 27
-14 51 -12 26 2 -11 6 -22 14 -25 18 -8 10 -80 50 -91 50 -5 0 -9 -5 -9 -11z"/>
<path d="M59949 21583 c13 -25 17 -28 54 -37 16 -4 27 -2 27 4 0 5 -12 13 -27
16 -16 4 -37 14 -47 23 -18 15 -18 15 -7 -6z"/>
<path d="M60080 21490 c0 -11 68 -25 77 -16 4 3 -1 6 -10 6 -9 0 -17 5 -17 10
0 6 -11 10 -25 10 -14 0 -25 -4 -25 -10z"/>
<path d="M60320 21364 c0 -3 13 -19 30 -35 22 -23 35 -29 52 -24 20 7 21 8 2
18 -10 5 -27 18 -37 28 -17 18 -47 26 -47 13z"/>
<path d="M60400 21349 c0 -5 5 -7 10 -4 6 3 10 8 10 11 0 2 -4 4 -10 4 -5 0
-10 -5 -10 -11z"/>
<path d="M60488 21293 c7 -3 16 -2 19 1 4 3 -2 6 -13 5 -11 0 -14 -3 -6 -6z"/>
<path d="M60510 21270 c-19 -4 -29 -8 -22 -9 6 0 12 -6 12 -12 0 -5 -4 -7 -10
-4 -5 3 -10 -1 -10 -9 0 -12 10 -16 40 -16 39 0 53 12 28 24 -10 5 -10 7 0 12
13 6 17 25 5 23 -5 -1 -24 -5 -43 -9z"/>
<path d="M60580 21191 c0 -17 -4 -31 -10 -31 -5 0 -10 -4 -10 -10 0 -5 18 -10
40 -10 22 0 40 4 40 10 0 6 9 5 24 -2 29 -13 56 -5 56 17 0 13 -3 13 -20 3
-10 -7 -23 -9 -27 -5 -4 5 -1 12 7 17 8 5 11 12 7 17 -4 4 -17 2 -27 -5 -11
-7 -20 -8 -20 -3 0 5 -8 11 -17 15 -10 3 -24 9 -30 12 -9 4 -13 -4 -13 -25z"/>
<path d="M60720 21124 c0 -3 12 -18 28 -33 31 -31 106 -44 95 -15 -8 22 -40
37 -46 21 -3 -8 -11 -5 -26 11 -20 20 -51 30 -51 16z"/>
<path d="M60880 21010 c0 -31 11 -36 57 -24 25 7 17 21 -24 42 -31 17 -33 16
-33 -18z"/>
<path d="M60980 20960 c0 -11 -4 -20 -10 -20 -5 0 -10 -9 -10 -20 0 -17 7 -20
40 -20 22 0 40 5 40 10 0 6 -13 10 -30 10 -16 0 -30 5 -30 10 0 18 49 11 70
-10 22 -22 70 -27 70 -7 0 7 -24 21 -52 31 -29 11 -57 23 -62 27 -16 15 -26
10 -26 -11z"/>
<path d="M61120 20884 c0 -3 12 -18 28 -33 19 -19 38 -28 65 -29 34 -1 37 0
27 18 -6 11 -14 20 -18 21 -4 0 -18 2 -31 3 -14 2 -27 8 -29 14 -4 12 -42 17
-42 6z"/>
<path d="M61920 20409 c0 -14 55 -69 69 -69 6 0 11 5 11 10 0 7 6 7 19 0 27
-14 51 -12 26 2 -11 6 -22 14 -25 18 -8 10 -80 50 -91 50 -5 0 -9 -5 -9 -11z"/>
<path d="M25050 15810 c-63 -4 -148 -8 -188 -9 l-73 -1 37 -44 37 -45 -2 -514
-2 -513 83 -23 c207 -57 362 -128 433 -199 l45 -46 0 -593 c0 -476 -3 -600
-14 -626 -40 -96 -225 -184 -571 -272 l-170 -43 -3 -198 c-1 -109 1 -201 5
-205 6 -6 2675 144 2734 153 12 2 -38 78 -173 263 -691 949 -1405 2036 -1877
2853 l-42 72 -72 -2 c-40 -1 -124 -5 -187 -8z"/>
<path d="M14910 13884 c0 -239 4 -394 9 -394 10 0 134 27 164 36 16 5 17 28
15 352 l-3 346 -92 27 -93 27 0 -394z"/>
</g>
</svg>
